<?xml version="1.0" encoding="UTF-8" standalone="no"?>
<!DOCTYPE svg PUBLIC "-//W3C//DTD SVG 1.1//EN"
 "http://www.w3.org/Graphics/SVG/1.1/DTD/svg11.dtd">
<!-- Generated by graphviz version 2.43.0 (0)
 -->
<!-- Title: %3 Pages: 1 -->
<svg width="1774pt" height="1183pt"
 viewBox="0.00 0.00 1774.38 1183.14" xmlns="http://www.w3.org/2000/svg" xmlns:xlink="http://www.w3.org/1999/xlink">
<g id="graph0" class="graph" transform="scale(1 1) rotate(0) translate(4 1179.14)">
<title>%3</title>
<polygon fill="white" stroke="transparent" points="-4,4 -4,-1179.14 1770.38,-1179.14 1770.38,4 -4,4"/>
<!-- &#45;1111511242926086854 -->
<g id="node1" class="node">
<title>&#45;1111511242926086854</title>
<ellipse fill="none" stroke="black" cx="771.69" cy="-1075.19" rx="27.9" ry="27.9"/>
<text text-anchor="middle" x="771.69" y="-1071.49" font-family="Helvetica,sans-Serif" font-size="14.00">mul</text>
</g>
<!-- 7441792793740695235 -->
<g id="node2" class="node">
<title>7441792793740695235</title>
<polygon fill="none" stroke="black" points="798.69,-1175.14 744.69,-1175.14 744.69,-1139.14 798.69,-1139.14 798.69,-1175.14"/>
<text text-anchor="middle" x="771.69" y="-1153.44" font-family="Helvetica,sans-Serif" font-size="14.00">0</text>
</g>
<!-- &#45;1111511242926086854&#45;&gt;7441792793740695235 -->
<g id="edge1" class="edge">
<title>&#45;1111511242926086854&#45;&gt;7441792793740695235</title>
<path fill="none" stroke="black" d="M771.69,-1103.26C771.69,-1111.45 771.69,-1120.44 771.69,-1128.66"/>
<polygon fill="black" stroke="black" points="768.19,-1128.88 771.69,-1138.88 775.19,-1128.88 768.19,-1128.88"/>
</g>
<!-- 8631236869278811752 -->
<g id="node3" class="node">
<title>8631236869278811752</title>
<polygon fill="none" stroke="black" points="762.69,-1011.24 708.69,-1011.24 708.69,-975.24 762.69,-975.24 762.69,-1011.24"/>
<text text-anchor="middle" x="735.69" y="-989.54" font-family="Helvetica,sans-Serif" font-size="14.00">0</text>
</g>
<!-- 8631236869278811752&#45;&gt;&#45;1111511242926086854 -->
<g id="edge2" class="edge">
<title>8631236869278811752&#45;&gt;&#45;1111511242926086854</title>
<path fill="none" stroke="black" d="M743.5,-1011.59C747.26,-1019.94 751.91,-1030.26 756.34,-1040.09"/>
<polygon fill="black" stroke="black" points="753.18,-1041.61 760.48,-1049.29 759.56,-1038.74 753.18,-1041.61"/>
</g>
<!-- 8827481962345205361 -->
<g id="node4" class="node">
<title>8827481962345205361</title>
<polygon fill="none" stroke="black" points="927.69,-1011.24 873.69,-1011.24 873.69,-975.24 927.69,-975.24 927.69,-1011.24"/>
<text text-anchor="middle" x="900.69" y="-989.54" font-family="Helvetica,sans-Serif" font-size="14.00">0</text>
</g>
<!-- 8827481962345205361&#45;&gt;&#45;1111511242926086854 -->
<g id="edge3" class="edge">
<title>8827481962345205361&#45;&gt;&#45;1111511242926086854</title>
<path fill="none" stroke="black" d="M873.65,-1011C853.35,-1023.58 825.48,-1040.86 804,-1054.16"/>
<polygon fill="black" stroke="black" points="801.89,-1051.36 795.23,-1059.6 805.58,-1057.31 801.89,-1051.36"/>
</g>
<!-- &#45;7508084555090518837 -->
<g id="node5" class="node">
<title>&#45;7508084555090518837</title>
<ellipse fill="none" stroke="black" cx="994.69" cy="-809.25" rx="129.98" ry="129.98"/>
<text text-anchor="middle" x="994.69" y="-805.55" font-family="Helvetica,sans-Serif" font-size="14.00">aggregate_sum&#45;aggregate</text>
</g>
<!-- &#45;7508084555090518837&#45;&gt;8827481962345205361 -->
<g id="edge4" class="edge">
<title>&#45;7508084555090518837&#45;&gt;8827481962345205361</title>
<path fill="none" stroke="black" d="M935.43,-924.99C927.52,-940.3 920.11,-954.64 914.19,-966.11"/>
<polygon fill="black" stroke="black" points="911.06,-964.55 909.58,-975.04 917.28,-967.76 911.06,-964.55"/>
</g>
<!-- &#45;7383635826965184399 -->
<g id="node6" class="node">
<title>&#45;7383635826965184399</title>
<polygon fill="none" stroke="black" points="1168.69,-643.27 1114.69,-643.27 1114.69,-607.27 1168.69,-607.27 1168.69,-643.27"/>
<text text-anchor="middle" x="1141.69" y="-621.57" font-family="Helvetica,sans-Serif" font-size="14.00">(3, 0)</text>
</g>
<!-- &#45;7383635826965184399&#45;&gt;&#45;7508084555090518837 -->
<g id="edge5" class="edge">
<title>&#45;7383635826965184399&#45;&gt;&#45;7508084555090518837</title>
<path fill="none" stroke="black" d="M1127.86,-643.39C1116.74,-657.16 1100.07,-677.79 1082.26,-699.85"/>
<polygon fill="black" stroke="black" points="1079.48,-697.72 1075.92,-707.7 1084.92,-702.12 1079.48,-697.72"/>
</g>
<!-- 356500090452647849 -->
<g id="node7" class="node">
<title>356500090452647849</title>
<polygon fill="none" stroke="black" points="1557.69,-643.27 1503.69,-643.27 1503.69,-607.27 1557.69,-607.27 1557.69,-643.27"/>
<text text-anchor="middle" x="1530.69" y="-621.57" font-family="Helvetica,sans-Serif" font-size="14.00">(0, 0)</text>
</g>
<!-- 356500090452647849&#45;&gt;&#45;7508084555090518837 -->
<g id="edge6" class="edge">
<title>356500090452647849&#45;&gt;&#45;7508084555090518837</title>
<path fill="none" stroke="black" d="M1503.37,-635.54C1435.23,-658.68 1254.12,-720.17 1127.52,-763.15"/>
<polygon fill="black" stroke="black" points="1126.08,-759.95 1117.74,-766.47 1128.33,-766.57 1126.08,-759.95"/>
</g>
<!-- 3650017441520224858 -->
<g id="node8" class="node">
<title>3650017441520224858</title>
<polygon fill="none" stroke="black" points="1021.69,-643.27 967.69,-643.27 967.69,-607.27 1021.69,-607.27 1021.69,-643.27"/>
<text text-anchor="middle" x="994.69" y="-621.57" font-family="Helvetica,sans-Serif" font-size="14.00">(1, 0)</text>
</g>
<!-- 3650017441520224858&#45;&gt;&#45;7508084555090518837 -->
<g id="edge7" class="edge">
<title>3650017441520224858&#45;&gt;&#45;7508084555090518837</title>
<path fill="none" stroke="black" d="M994.69,-643.39C994.69,-650.35 994.69,-659.08 994.69,-668.86"/>
<polygon fill="black" stroke="black" points="991.19,-668.96 994.69,-678.96 998.19,-668.96 991.19,-668.96"/>
</g>
<!-- 8258988883414835990 -->
<g id="node9" class="node">
<title>8258988883414835990</title>
<polygon fill="none" stroke="black" points="873.69,-643.27 819.69,-643.27 819.69,-607.27 873.69,-607.27 873.69,-643.27"/>
<text text-anchor="middle" x="846.69" y="-621.57" font-family="Helvetica,sans-Serif" font-size="14.00">(2, 0)</text>
</g>
<!-- 8258988883414835990&#45;&gt;&#45;7508084555090518837 -->
<g id="edge8" class="edge">
<title>8258988883414835990&#45;&gt;&#45;7508084555090518837</title>
<path fill="none" stroke="black" d="M860.61,-643.39C871.81,-657.16 888.6,-677.79 906.53,-699.85"/>
<polygon fill="black" stroke="black" points="903.89,-702.15 912.91,-707.7 909.32,-697.73 903.89,-702.15"/>
</g>
<!-- &#45;8196674707903596665 -->
<g id="node10" class="node">
<title>&#45;8196674707903596665</title>
<ellipse fill="none" stroke="black" cx="1663.69" cy="-468.57" rx="102.88" ry="102.88"/>
<text text-anchor="middle" x="1663.69" y="-464.87" font-family="Helvetica,sans-Serif" font-size="14.00">sum_drop_keepdims</text>
</g>
<!-- &#45;8196674707903596665&#45;&gt;356500090452647849 -->
<g id="edge9" class="edge">
<title>&#45;8196674707903596665&#45;&gt;356500090452647849</title>
<path fill="none" stroke="black" d="M1597.19,-546.92C1580.9,-565.86 1564.62,-584.8 1552.24,-599.2"/>
<polygon fill="black" stroke="black" points="1549.3,-597.26 1545.43,-607.12 1554.61,-601.82 1549.3,-597.26"/>
</g>
<!-- &#45;6243912372886735099 -->
<g id="node11" class="node">
<title>&#45;6243912372886735099</title>
<polygon fill="none" stroke="black" points="1467.69,-329.88 1413.69,-329.88 1413.69,-293.88 1467.69,-293.88 1467.69,-329.88"/>
<text text-anchor="middle" x="1440.69" y="-308.18" font-family="Helvetica,sans-Serif" font-size="14.00">(0, 0)</text>
</g>
<!-- &#45;6243912372886735099&#45;&gt;&#45;8196674707903596665 -->
<g id="edge10" class="edge">
<title>&#45;6243912372886735099&#45;&gt;&#45;8196674707903596665</title>
<path fill="none" stroke="black" d="M1468.15,-323.17C1491.61,-332.58 1525.73,-347.76 1552.69,-365.88 1563.05,-372.84 1573.4,-380.74 1583.39,-388.99"/>
<polygon fill="black" stroke="black" points="1581.41,-391.91 1591.32,-395.67 1585.92,-386.55 1581.41,-391.91"/>
</g>
<!-- &#45;5807389887729298325 -->
<g id="node23" class="node">
<title>&#45;5807389887729298325</title>
<ellipse fill="none" stroke="black" cx="1440.69" cy="-468.57" rx="102.88" ry="102.88"/>
<text text-anchor="middle" x="1440.69" y="-464.87" font-family="Helvetica,sans-Serif" font-size="14.00">sum_drop_keepdims</text>
</g>
<!-- &#45;6243912372886735099&#45;&gt;&#45;5807389887729298325 -->
<g id="edge23" class="edge">
<title>&#45;6243912372886735099&#45;&gt;&#45;5807389887729298325</title>
<path fill="none" stroke="black" d="M1440.69,-330.03C1440.69,-337.11 1440.69,-345.95 1440.69,-355.71"/>
<polygon fill="black" stroke="black" points="1437.19,-355.75 1440.69,-365.75 1444.19,-355.75 1437.19,-355.75"/>
</g>
<!-- 4644351085797628085 -->
<g id="node12" class="node">
<title>4644351085797628085</title>
<ellipse fill="none" stroke="black" cx="994.69" cy="-468.57" rx="102.88" ry="102.88"/>
<text text-anchor="middle" x="994.69" y="-464.87" font-family="Helvetica,sans-Serif" font-size="14.00">sum_drop_keepdims</text>
</g>
<!-- 4644351085797628085&#45;&gt;3650017441520224858 -->
<g id="edge11" class="edge">
<title>4644351085797628085&#45;&gt;3650017441520224858</title>
<path fill="none" stroke="black" d="M994.69,-571.46C994.69,-580.58 994.69,-589.2 994.69,-596.72"/>
<polygon fill="black" stroke="black" points="991.19,-596.89 994.69,-606.89 998.19,-596.89 991.19,-596.89"/>
</g>
<!-- 3606236279077652953 -->
<g id="node13" class="node">
<title>3606236279077652953</title>
<polygon fill="none" stroke="black" points="1012.69,-329.88 958.69,-329.88 958.69,-293.88 1012.69,-293.88 1012.69,-329.88"/>
<text text-anchor="middle" x="985.69" y="-308.18" font-family="Helvetica,sans-Serif" font-size="14.00">(1, 0)</text>
</g>
<!-- 3606236279077652953&#45;&gt;4644351085797628085 -->
<g id="edge12" class="edge">
<title>3606236279077652953&#45;&gt;4644351085797628085</title>
<path fill="none" stroke="black" d="M986.69,-330.03C987.1,-337.11 987.61,-345.95 988.18,-355.71"/>
<polygon fill="black" stroke="black" points="984.69,-355.97 988.77,-365.75 991.68,-355.57 984.69,-355.97"/>
</g>
<!-- 6850571656015818964 -->
<g id="node24" class="node">
<title>6850571656015818964</title>
<ellipse fill="none" stroke="black" cx="325.69" cy="-468.57" rx="102.88" ry="102.88"/>
<text text-anchor="middle" x="325.69" y="-464.87" font-family="Helvetica,sans-Serif" font-size="14.00">sum_drop_keepdims</text>
</g>
<!-- 3606236279077652953&#45;&gt;6850571656015818964 -->
<g id="edge25" class="edge">
<title>3606236279077652953&#45;&gt;6850571656015818964</title>
<path fill="none" stroke="black" d="M958.55,-315.48C848.1,-326.02 438.2,-365.21 436.69,-365.88 424.9,-371.14 413.52,-378.15 402.84,-386.05"/>
<polygon fill="black" stroke="black" points="400.59,-383.36 394.81,-392.24 404.86,-388.9 400.59,-383.36"/>
</g>
<!-- &#45;2709361766114008417 -->
<g id="node14" class="node">
<title>&#45;2709361766114008417</title>
<ellipse fill="none" stroke="black" cx="771.69" cy="-468.57" rx="102.88" ry="102.88"/>
<text text-anchor="middle" x="771.69" y="-464.87" font-family="Helvetica,sans-Serif" font-size="14.00">sum_drop_keepdims</text>
</g>
<!-- &#45;2709361766114008417&#45;&gt;8258988883414835990 -->
<g id="edge13" class="edge">
<title>&#45;2709361766114008417&#45;&gt;8258988883414835990</title>
<path fill="none" stroke="black" d="M816.19,-561.35C822.64,-574.66 828.81,-587.38 833.89,-597.85"/>
<polygon fill="black" stroke="black" points="830.88,-599.69 838.4,-607.16 837.18,-596.63 830.88,-599.69"/>
</g>
<!-- 6899753630145229962 -->
<g id="node15" class="node">
<title>6899753630145229962</title>
<polygon fill="none" stroke="black" points="798.69,-329.88 744.69,-329.88 744.69,-293.88 798.69,-293.88 798.69,-329.88"/>
<text text-anchor="middle" x="771.69" y="-308.18" font-family="Helvetica,sans-Serif" font-size="14.00">(2, 0)</text>
</g>
<!-- 6899753630145229962&#45;&gt;&#45;2709361766114008417 -->
<g id="edge14" class="edge">
<title>6899753630145229962&#45;&gt;&#45;2709361766114008417</title>
<path fill="none" stroke="black" d="M771.69,-330.03C771.69,-337.11 771.69,-345.95 771.69,-355.71"/>
<polygon fill="black" stroke="black" points="768.19,-355.75 771.69,-365.75 775.19,-355.75 768.19,-355.75"/>
</g>
<!-- &#45;6035985261221328970 -->
<g id="node25" class="node">
<title>&#45;6035985261221328970</title>
<ellipse fill="none" stroke="black" cx="102.69" cy="-468.57" rx="102.88" ry="102.88"/>
<text text-anchor="middle" x="102.69" y="-464.87" font-family="Helvetica,sans-Serif" font-size="14.00">sum_drop_keepdims</text>
</g>
<!-- 6899753630145229962&#45;&gt;&#45;6035985261221328970 -->
<g id="edge27" class="edge">
<title>6899753630145229962&#45;&gt;&#45;6035985261221328970</title>
<path fill="none" stroke="black" d="M744.53,-313.2C646.33,-314.68 310.51,-322.86 213.69,-365.88 201.89,-371.13 190.51,-378.13 179.83,-386.03"/>
<polygon fill="black" stroke="black" points="177.58,-383.34 171.8,-392.23 181.86,-388.89 177.58,-383.34"/>
</g>
<!-- 2790008361403285210 -->
<g id="node16" class="node">
<title>2790008361403285210</title>
<ellipse fill="none" stroke="black" cx="1217.69" cy="-468.57" rx="102.88" ry="102.88"/>
<text text-anchor="middle" x="1217.69" y="-464.87" font-family="Helvetica,sans-Serif" font-size="14.00">sum_drop_keepdims</text>
</g>
<!-- 2790008361403285210&#45;&gt;&#45;7383635826965184399 -->
<g id="edge15" class="edge">
<title>2790008361403285210&#45;&gt;&#45;7383635826965184399</title>
<path fill="none" stroke="black" d="M1172.6,-561.35C1166,-574.8 1159.68,-587.64 1154.51,-598.18"/>
<polygon fill="black" stroke="black" points="1151.36,-596.64 1150.1,-607.16 1157.65,-599.72 1151.36,-596.64"/>
</g>
<!-- &#45;1696841791599933602 -->
<g id="node17" class="node">
<title>&#45;1696841791599933602</title>
<polygon fill="none" stroke="black" points="1216.69,-329.88 1162.69,-329.88 1162.69,-293.88 1216.69,-293.88 1216.69,-329.88"/>
<text text-anchor="middle" x="1189.69" y="-308.18" font-family="Helvetica,sans-Serif" font-size="14.00">(3, 0)</text>
</g>
<!-- &#45;1696841791599933602&#45;&gt;2790008361403285210 -->
<g id="edge16" class="edge">
<title>&#45;1696841791599933602&#45;&gt;2790008361403285210</title>
<path fill="none" stroke="black" d="M1192.79,-330.03C1194.16,-337.56 1195.88,-347.08 1197.78,-357.58"/>
<polygon fill="black" stroke="black" points="1194.35,-358.26 1199.57,-367.47 1201.24,-357.01 1194.35,-358.26"/>
</g>
<!-- &#45;2709555934142682067 -->
<g id="node26" class="node">
<title>&#45;2709555934142682067</title>
<ellipse fill="none" stroke="black" cx="548.69" cy="-468.57" rx="102.88" ry="102.88"/>
<text text-anchor="middle" x="548.69" y="-464.87" font-family="Helvetica,sans-Serif" font-size="14.00">sum_drop_keepdims</text>
</g>
<!-- &#45;1696841791599933602&#45;&gt;&#45;2709555934142682067 -->
<g id="edge29" class="edge">
<title>&#45;1696841791599933602&#45;&gt;&#45;2709555934142682067</title>
<path fill="none" stroke="black" d="M1162.63,-315.64C1129.43,-319.01 1071.42,-324.89 1021.69,-329.88 941.25,-337.95 733.49,-332.89 659.69,-365.88 647.9,-371.15 636.53,-378.18 625.85,-386.08"/>
<polygon fill="black" stroke="black" points="623.6,-383.4 617.83,-392.28 627.88,-388.94 623.6,-383.4"/>
</g>
<!-- 4789027969008366314 -->
<g id="node18" class="node">
<title>4789027969008366314</title>
<ellipse fill="none" stroke="black" cx="548.69" cy="-809.25" rx="129.98" ry="129.98"/>
<text text-anchor="middle" x="548.69" y="-805.55" font-family="Helvetica,sans-Serif" font-size="14.00">aggregate_sum&#45;aggregate</text>
</g>
<!-- 4789027969008366314&#45;&gt;8631236869278811752 -->
<g id="edge17" class="edge">
<title>4789027969008366314&#45;&gt;8631236869278811752</title>
<path fill="none" stroke="black" d="M641.37,-900.45C666.92,-925.32 692.56,-950.27 710.64,-967.86"/>
<polygon fill="black" stroke="black" points="708.3,-970.47 717.91,-974.93 713.18,-965.45 708.3,-970.47"/>
</g>
<!-- 908271811704855753 -->
<g id="node19" class="node">
<title>908271811704855753</title>
<polygon fill="none" stroke="black" points="427.69,-643.27 373.69,-643.27 373.69,-607.27 427.69,-607.27 427.69,-643.27"/>
<text text-anchor="middle" x="400.69" y="-621.57" font-family="Helvetica,sans-Serif" font-size="14.00">(1, 0)</text>
</g>
<!-- 908271811704855753&#45;&gt;4789027969008366314 -->
<g id="edge18" class="edge">
<title>908271811704855753&#45;&gt;4789027969008366314</title>
<path fill="none" stroke="black" d="M414.61,-643.39C425.81,-657.16 442.6,-677.79 460.53,-699.85"/>
<polygon fill="black" stroke="black" points="457.89,-702.15 466.91,-707.7 463.32,-697.73 457.89,-702.15"/>
</g>
<!-- &#45;1528786035035389940 -->
<g id="node20" class="node">
<title>&#45;1528786035035389940</title>
<polygon fill="none" stroke="black" points="280.69,-643.27 226.69,-643.27 226.69,-607.27 280.69,-607.27 280.69,-643.27"/>
<text text-anchor="middle" x="253.69" y="-621.57" font-family="Helvetica,sans-Serif" font-size="14.00">(2, 0)</text>
</g>
<!-- &#45;1528786035035389940&#45;&gt;4789027969008366314 -->
<g id="edge19" class="edge">
<title>&#45;1528786035035389940&#45;&gt;4789027969008366314</title>
<path fill="none" stroke="black" d="M280.92,-643.06C314.83,-663.98 375,-701.1 429.72,-734.86"/>
<polygon fill="black" stroke="black" points="428.1,-737.97 438.45,-740.25 431.78,-732.02 428.1,-737.97"/>
</g>
<!-- &#45;8793163641957098930 -->
<g id="node21" class="node">
<title>&#45;8793163641957098930</title>
<polygon fill="none" stroke="black" points="575.69,-643.27 521.69,-643.27 521.69,-607.27 575.69,-607.27 575.69,-643.27"/>
<text text-anchor="middle" x="548.69" y="-621.57" font-family="Helvetica,sans-Serif" font-size="14.00">(3, 0)</text>
</g>
<!-- &#45;8793163641957098930&#45;&gt;4789027969008366314 -->
<g id="edge20" class="edge">
<title>&#45;8793163641957098930&#45;&gt;4789027969008366314</title>
<path fill="none" stroke="black" d="M548.69,-643.39C548.69,-650.35 548.69,-659.08 548.69,-668.86"/>
<polygon fill="black" stroke="black" points="545.19,-668.96 548.69,-678.96 552.19,-668.96 545.19,-668.96"/>
</g>
<!-- &#45;1053027724539266682 -->
<g id="node22" class="node">
<title>&#45;1053027724539266682</title>
<polygon fill="none" stroke="black" points="1353.69,-643.27 1299.69,-643.27 1299.69,-607.27 1353.69,-607.27 1353.69,-643.27"/>
<text text-anchor="middle" x="1326.69" y="-621.57" font-family="Helvetica,sans-Serif" font-size="14.00">(0, 0)</text>
</g>
<!-- &#45;1053027724539266682&#45;&gt;4789027969008366314 -->
<g id="edge21" class="edge">
<title>&#45;1053027724539266682&#45;&gt;4789027969008366314</title>
<path fill="none" stroke="black" d="M1299.5,-629.39C1269.64,-632.81 1220.25,-638.46 1177.69,-643.27 1034.6,-659.43 995.05,-643 855.69,-679.27 794.07,-695.3 728.66,-721.41 674.11,-745.96"/>
<polygon fill="black" stroke="black" points="672.42,-742.88 664.76,-750.2 675.31,-749.26 672.42,-742.88"/>
</g>
<!-- &#45;5807389887729298325&#45;&gt;&#45;1053027724539266682 -->
<g id="edge22" class="edge">
<title>&#45;5807389887729298325&#45;&gt;&#45;1053027724539266682</title>
<path fill="none" stroke="black" d="M1380.02,-551.9C1367.49,-568.9 1355.2,-585.58 1345.58,-598.63"/>
<polygon fill="black" stroke="black" points="1342.49,-596.92 1339.38,-607.05 1348.13,-601.08 1342.49,-596.92"/>
</g>
<!-- 6850571656015818964&#45;&gt;908271811704855753 -->
<g id="edge24" class="edge">
<title>6850571656015818964&#45;&gt;908271811704855753</title>
<path fill="none" stroke="black" d="M370.19,-561.35C376.64,-574.66 382.81,-587.38 387.89,-597.85"/>
<polygon fill="black" stroke="black" points="384.88,-599.69 392.4,-607.16 391.18,-596.63 384.88,-599.69"/>
</g>
<!-- &#45;6035985261221328970&#45;&gt;&#45;1528786035035389940 -->
<g id="edge26" class="edge">
<title>&#45;6035985261221328970&#45;&gt;&#45;1528786035035389940</title>
<path fill="none" stroke="black" d="M174.21,-542.84C194.2,-563.32 214.57,-584.19 229.68,-599.67"/>
<polygon fill="black" stroke="black" points="227.58,-602.53 237.07,-607.24 232.59,-597.64 227.58,-602.53"/>
</g>
<!-- &#45;2709555934142682067&#45;&gt;&#45;8793163641957098930 -->
<g id="edge28" class="edge">
<title>&#45;2709555934142682067&#45;&gt;&#45;8793163641957098930</title>
<path fill="none" stroke="black" d="M548.69,-571.46C548.69,-580.58 548.69,-589.2 548.69,-596.72"/>
<polygon fill="black" stroke="black" points="545.19,-596.89 548.69,-606.89 552.19,-596.89 545.19,-596.89"/>
</g>
<!-- &#45;4969809071886956273 -->
<g id="node27" class="node">
<title>&#45;4969809071886956273</title>
<ellipse fill="none" stroke="black" cx="1417.69" cy="-164.94" rx="92.88" ry="92.88"/>
<text text-anchor="middle" x="1417.69" y="-161.24" font-family="Helvetica,sans-Serif" font-size="14.00">make_dask_chunk</text>
</g>
<!-- &#45;4969809071886956273&#45;&gt;&#45;6243912372886735099 -->
<g id="edge30" class="edge">
<title>&#45;4969809071886956273&#45;&gt;&#45;6243912372886735099</title>
<path fill="none" stroke="black" d="M1432.13,-256.91C1433.64,-266.45 1435.08,-275.54 1436.34,-283.44"/>
<polygon fill="black" stroke="black" points="1432.89,-284.08 1437.92,-293.41 1439.81,-282.98 1432.89,-284.08"/>
</g>
<!-- &#45;5298778080384754374 -->
<g id="node28" class="node">
<title>&#45;5298778080384754374</title>
<polygon fill="none" stroke="black" points="1114.69,-36 1060.69,-36 1060.69,0 1114.69,0 1114.69,-36"/>
</g>
<!-- &#45;5298778080384754374&#45;&gt;&#45;4969809071886956273 -->
<g id="edge31" class="edge">
<title>&#45;5298778080384754374&#45;&gt;&#45;4969809071886956273</title>
<path fill="none" stroke="black" d="M1114.88,-22.73C1155.07,-28.98 1232,-43.73 1291.69,-72 1307.34,-79.41 1323.04,-88.86 1337.78,-98.86"/>
<polygon fill="black" stroke="black" points="1336.12,-101.97 1346.34,-104.8 1340.12,-96.22 1336.12,-101.97"/>
</g>
<!-- &#45;2315841982502462613 -->
<g id="node29" class="node">
<title>&#45;2315841982502462613</title>
<ellipse fill="none" stroke="black" cx="985.69" cy="-164.94" rx="92.88" ry="92.88"/>
<text text-anchor="middle" x="985.69" y="-161.24" font-family="Helvetica,sans-Serif" font-size="14.00">make_dask_chunk</text>
</g>
<!-- &#45;5298778080384754374&#45;&gt;&#45;2315841982502462613 -->
<g id="edge33" class="edge">
<title>&#45;5298778080384754374&#45;&gt;&#45;2315841982502462613</title>
<path fill="none" stroke="black" d="M1075.59,-36.2C1067.56,-47.6 1056.37,-63.51 1044.6,-80.23"/>
<polygon fill="black" stroke="black" points="1041.68,-78.3 1038.79,-88.49 1047.41,-82.32 1041.68,-78.3"/>
</g>
<!-- 4855044223931890048 -->
<g id="node30" class="node">
<title>4855044223931890048</title>
<ellipse fill="none" stroke="black" cx="776.69" cy="-164.94" rx="92.88" ry="92.88"/>
<text text-anchor="middle" x="776.69" y="-161.24" font-family="Helvetica,sans-Serif" font-size="14.00">make_dask_chunk</text>
</g>
<!-- &#45;5298778080384754374&#45;&gt;4855044223931890048 -->
<g id="edge35" class="edge">
<title>&#45;5298778080384754374&#45;&gt;4855044223931890048</title>
<path fill="none" stroke="black" d="M1060.53,-22.08C1020.06,-27.52 942.38,-41.3 883.69,-72 872.36,-77.93 861.21,-85.26 850.62,-93.18"/>
<polygon fill="black" stroke="black" points="848.43,-90.45 842.65,-99.33 852.7,-95.99 848.43,-90.45"/>
</g>
<!-- &#45;5267593173126295819 -->
<g id="node31" class="node">
<title>&#45;5267593173126295819</title>
<ellipse fill="none" stroke="black" cx="1189.69" cy="-164.94" rx="92.88" ry="92.88"/>
<text text-anchor="middle" x="1189.69" y="-161.24" font-family="Helvetica,sans-Serif" font-size="14.00">make_dask_chunk</text>
</g>
<!-- &#45;5298778080384754374&#45;&gt;&#45;5267593173126295819 -->
<g id="edge37" class="edge">
<title>&#45;5298778080384754374&#45;&gt;&#45;5267593173126295819</title>
<path fill="none" stroke="black" d="M1099.79,-36.2C1107.82,-47.6 1119.01,-63.51 1130.78,-80.23"/>
<polygon fill="black" stroke="black" points="1127.97,-82.32 1136.59,-88.49 1133.7,-78.3 1127.97,-82.32"/>
</g>
<!-- &#45;2315841982502462613&#45;&gt;3606236279077652953 -->
<g id="edge32" class="edge">
<title>&#45;2315841982502462613&#45;&gt;3606236279077652953</title>
<path fill="none" stroke="black" d="M985.69,-258.15C985.69,-267.41 985.69,-276.2 985.69,-283.86"/>
<polygon fill="black" stroke="black" points="982.19,-283.86 985.69,-293.86 989.19,-283.86 982.19,-283.86"/>
</g>
<!-- 4855044223931890048&#45;&gt;6899753630145229962 -->
<g id="edge34" class="edge">
<title>4855044223931890048&#45;&gt;6899753630145229962</title>
<path fill="none" stroke="black" d="M773.51,-258.15C773.19,-267.41 772.89,-276.2 772.62,-283.86"/>
<polygon fill="black" stroke="black" points="769.13,-283.74 772.28,-293.86 776.12,-283.99 769.13,-283.74"/>
</g>
<!-- &#45;5267593173126295819&#45;&gt;&#45;1696841791599933602 -->
<g id="edge36" class="edge">
<title>&#45;5267593173126295819&#45;&gt;&#45;1696841791599933602</title>
<path fill="none" stroke="black" d="M1189.69,-258.15C1189.69,-267.41 1189.69,-276.2 1189.69,-283.86"/>
<polygon fill="black" stroke="black" points="1186.19,-283.86 1189.69,-293.86 1193.19,-283.86 1186.19,-283.86"/>
</g>
</g>
</svg>
