<?xml version="1.0" encoding="UTF-8" standalone="no"?>
<!DOCTYPE svg PUBLIC "-//W3C//DTD SVG 1.1//EN"
 "http://www.w3.org/Graphics/SVG/1.1/DTD/svg11.dtd">
<!-- Generated by graphviz version 2.43.0 (0)
 -->
<!-- Title: %3 Pages: 1 -->
<svg width="1774pt" height="1699pt"
 viewBox="0.00 0.00 1774.38 1698.51" xmlns="http://www.w3.org/2000/svg" xmlns:xlink="http://www.w3.org/1999/xlink">
<g id="graph0" class="graph" transform="scale(1 1) rotate(0) translate(4 1694.51)">
<title>%3</title>
<polygon fill="white" stroke="transparent" points="-4,4 -4,-1694.51 1770.38,-1694.51 1770.38,4 -4,4"/>
<!-- 8579944320727166662 -->
<g id="node1" class="node">
<title>8579944320727166662</title>
<ellipse fill="none" stroke="black" cx="771.69" cy="-1590.56" rx="27.9" ry="27.9"/>
<text text-anchor="middle" x="771.69" y="-1586.86" font-family="Helvetica,sans-Serif" font-size="14.00">mul</text>
</g>
<!-- 6887878950116199153 -->
<g id="node2" class="node">
<title>6887878950116199153</title>
<polygon fill="none" stroke="black" points="798.69,-1690.51 744.69,-1690.51 744.69,-1654.51 798.69,-1654.51 798.69,-1690.51"/>
<text text-anchor="middle" x="771.69" y="-1668.81" font-family="Helvetica,sans-Serif" font-size="14.00">0</text>
</g>
<!-- 8579944320727166662&#45;&gt;6887878950116199153 -->
<g id="edge1" class="edge">
<title>8579944320727166662&#45;&gt;6887878950116199153</title>
<path fill="none" stroke="black" d="M771.69,-1618.63C771.69,-1626.82 771.69,-1635.81 771.69,-1644.03"/>
<polygon fill="black" stroke="black" points="768.19,-1644.25 771.69,-1654.25 775.19,-1644.25 768.19,-1644.25"/>
</g>
<!-- 4635975010315519723 -->
<g id="node3" class="node">
<title>4635975010315519723</title>
<polygon fill="none" stroke="black" points="762.69,-1526.61 708.69,-1526.61 708.69,-1490.61 762.69,-1490.61 762.69,-1526.61"/>
<text text-anchor="middle" x="735.69" y="-1504.91" font-family="Helvetica,sans-Serif" font-size="14.00">0</text>
</g>
<!-- 4635975010315519723&#45;&gt;8579944320727166662 -->
<g id="edge2" class="edge">
<title>4635975010315519723&#45;&gt;8579944320727166662</title>
<path fill="none" stroke="black" d="M743.5,-1526.96C747.26,-1535.31 751.91,-1545.63 756.34,-1555.46"/>
<polygon fill="black" stroke="black" points="753.18,-1556.98 760.48,-1564.66 759.56,-1554.11 753.18,-1556.98"/>
</g>
<!-- &#45;2262185532304103859 -->
<g id="node4" class="node">
<title>&#45;2262185532304103859</title>
<polygon fill="none" stroke="black" points="927.69,-1526.61 873.69,-1526.61 873.69,-1490.61 927.69,-1490.61 927.69,-1526.61"/>
<text text-anchor="middle" x="900.69" y="-1504.91" font-family="Helvetica,sans-Serif" font-size="14.00">0</text>
</g>
<!-- &#45;2262185532304103859&#45;&gt;8579944320727166662 -->
<g id="edge3" class="edge">
<title>&#45;2262185532304103859&#45;&gt;8579944320727166662</title>
<path fill="none" stroke="black" d="M873.65,-1526.37C853.35,-1538.95 825.48,-1556.23 804,-1569.53"/>
<polygon fill="black" stroke="black" points="801.89,-1566.73 795.23,-1574.97 805.58,-1572.68 801.89,-1566.73"/>
</g>
<!-- &#45;2094783145564326569 -->
<g id="node5" class="node">
<title>&#45;2094783145564326569</title>
<ellipse fill="none" stroke="black" cx="548.69" cy="-1324.62" rx="129.98" ry="129.98"/>
<text text-anchor="middle" x="548.69" y="-1320.92" font-family="Helvetica,sans-Serif" font-size="14.00">aggregate_sum&#45;aggregate</text>
</g>
<!-- &#45;2094783145564326569&#45;&gt;4635975010315519723 -->
<g id="edge4" class="edge">
<title>&#45;2094783145564326569&#45;&gt;4635975010315519723</title>
<path fill="none" stroke="black" d="M641.37,-1415.82C666.92,-1440.69 692.56,-1465.64 710.64,-1483.23"/>
<polygon fill="black" stroke="black" points="708.3,-1485.84 717.91,-1490.3 713.18,-1480.82 708.3,-1485.84"/>
</g>
<!-- &#45;8821192450870812328 -->
<g id="node6" class="node">
<title>&#45;8821192450870812328</title>
<polygon fill="none" stroke="black" points="427.69,-1158.64 373.69,-1158.64 373.69,-1122.64 427.69,-1122.64 427.69,-1158.64"/>
<text text-anchor="middle" x="400.69" y="-1136.94" font-family="Helvetica,sans-Serif" font-size="14.00">(1, 0)</text>
</g>
<!-- &#45;8821192450870812328&#45;&gt;&#45;2094783145564326569 -->
<g id="edge5" class="edge">
<title>&#45;8821192450870812328&#45;&gt;&#45;2094783145564326569</title>
<path fill="none" stroke="black" d="M414.61,-1158.76C425.81,-1172.53 442.6,-1193.16 460.53,-1215.22"/>
<polygon fill="black" stroke="black" points="457.89,-1217.52 466.91,-1223.07 463.32,-1213.1 457.89,-1217.52"/>
</g>
<!-- 1518354188831621506 -->
<g id="node7" class="node">
<title>1518354188831621506</title>
<polygon fill="none" stroke="black" points="280.69,-1158.64 226.69,-1158.64 226.69,-1122.64 280.69,-1122.64 280.69,-1158.64"/>
<text text-anchor="middle" x="253.69" y="-1136.94" font-family="Helvetica,sans-Serif" font-size="14.00">(2, 0)</text>
</g>
<!-- 1518354188831621506&#45;&gt;&#45;2094783145564326569 -->
<g id="edge6" class="edge">
<title>1518354188831621506&#45;&gt;&#45;2094783145564326569</title>
<path fill="none" stroke="black" d="M280.92,-1158.43C314.83,-1179.35 375,-1216.47 429.72,-1250.23"/>
<polygon fill="black" stroke="black" points="428.1,-1253.34 438.45,-1255.62 431.78,-1247.39 428.1,-1253.34"/>
</g>
<!-- 6821432259509208061 -->
<g id="node8" class="node">
<title>6821432259509208061</title>
<polygon fill="none" stroke="black" points="575.69,-1158.64 521.69,-1158.64 521.69,-1122.64 575.69,-1122.64 575.69,-1158.64"/>
<text text-anchor="middle" x="548.69" y="-1136.94" font-family="Helvetica,sans-Serif" font-size="14.00">(0, 0)</text>
</g>
<!-- 6821432259509208061&#45;&gt;&#45;2094783145564326569 -->
<g id="edge7" class="edge">
<title>6821432259509208061&#45;&gt;&#45;2094783145564326569</title>
<path fill="none" stroke="black" d="M548.69,-1158.76C548.69,-1165.72 548.69,-1174.45 548.69,-1184.23"/>
<polygon fill="black" stroke="black" points="545.19,-1184.33 548.69,-1194.33 552.19,-1184.33 545.19,-1184.33"/>
</g>
<!-- &#45;7078241232913542058 -->
<g id="node9" class="node">
<title>&#45;7078241232913542058</title>
<polygon fill="none" stroke="black" points="1353.69,-1158.64 1299.69,-1158.64 1299.69,-1122.64 1353.69,-1122.64 1353.69,-1158.64"/>
<text text-anchor="middle" x="1326.69" y="-1136.94" font-family="Helvetica,sans-Serif" font-size="14.00">(3, 0)</text>
</g>
<!-- &#45;7078241232913542058&#45;&gt;&#45;2094783145564326569 -->
<g id="edge8" class="edge">
<title>&#45;7078241232913542058&#45;&gt;&#45;2094783145564326569</title>
<path fill="none" stroke="black" d="M1299.5,-1144.76C1269.64,-1148.18 1220.25,-1153.83 1177.69,-1158.64 1034.6,-1174.8 995.05,-1158.37 855.69,-1194.64 794.07,-1210.67 728.66,-1236.78 674.11,-1261.33"/>
<polygon fill="black" stroke="black" points="672.42,-1258.25 664.76,-1265.57 675.31,-1264.63 672.42,-1258.25"/>
</g>
<!-- 169144247118850848 -->
<g id="node10" class="node">
<title>169144247118850848</title>
<ellipse fill="none" stroke="black" cx="548.69" cy="-983.94" rx="102.88" ry="102.88"/>
<text text-anchor="middle" x="548.69" y="-980.24" font-family="Helvetica,sans-Serif" font-size="14.00">sum_drop_keepdims</text>
</g>
<!-- 169144247118850848&#45;&gt;6821432259509208061 -->
<g id="edge9" class="edge">
<title>169144247118850848&#45;&gt;6821432259509208061</title>
<path fill="none" stroke="black" d="M548.69,-1086.83C548.69,-1095.95 548.69,-1104.57 548.69,-1112.09"/>
<polygon fill="black" stroke="black" points="545.19,-1112.26 548.69,-1122.26 552.19,-1112.26 545.19,-1112.26"/>
</g>
<!-- &#45;673940599366540125 -->
<g id="node11" class="node">
<title>&#45;673940599366540125</title>
<polygon fill="none" stroke="black" points="1179.69,-845.25 1125.69,-845.25 1125.69,-809.25 1179.69,-809.25 1179.69,-845.25"/>
<text text-anchor="middle" x="1152.69" y="-823.55" font-family="Helvetica,sans-Serif" font-size="14.00">(0, 0)</text>
</g>
<!-- &#45;673940599366540125&#45;&gt;169144247118850848 -->
<g id="edge10" class="edge">
<title>&#45;673940599366540125&#45;&gt;169144247118850848</title>
<path fill="none" stroke="black" d="M1125.61,-828.96C1035.11,-831.64 744.12,-843.11 659.69,-881.25 647.92,-886.57 636.56,-893.62 625.89,-901.54"/>
<polygon fill="black" stroke="black" points="623.64,-898.86 617.87,-907.75 627.92,-904.4 623.64,-898.86"/>
</g>
<!-- 3833077939195904258 -->
<g id="node23" class="node">
<title>3833077939195904258</title>
<ellipse fill="none" stroke="black" cx="1217.69" cy="-983.94" rx="102.88" ry="102.88"/>
<text text-anchor="middle" x="1217.69" y="-980.24" font-family="Helvetica,sans-Serif" font-size="14.00">sum_drop_keepdims</text>
</g>
<!-- &#45;673940599366540125&#45;&gt;3833077939195904258 -->
<g id="edge23" class="edge">
<title>&#45;673940599366540125&#45;&gt;3833077939195904258</title>
<path fill="none" stroke="black" d="M1159.9,-845.4C1163.71,-854.48 1168.74,-866.45 1174.24,-879.54"/>
<polygon fill="black" stroke="black" points="1171.02,-880.91 1178.12,-888.77 1177.47,-878.2 1171.02,-880.91"/>
</g>
<!-- &#45;2220334741084121142 -->
<g id="node12" class="node">
<title>&#45;2220334741084121142</title>
<ellipse fill="none" stroke="black" cx="325.69" cy="-983.94" rx="102.88" ry="102.88"/>
<text text-anchor="middle" x="325.69" y="-980.24" font-family="Helvetica,sans-Serif" font-size="14.00">sum_drop_keepdims</text>
</g>
<!-- &#45;2220334741084121142&#45;&gt;&#45;8821192450870812328 -->
<g id="edge11" class="edge">
<title>&#45;2220334741084121142&#45;&gt;&#45;8821192450870812328</title>
<path fill="none" stroke="black" d="M370.19,-1076.72C376.64,-1090.03 382.81,-1102.75 387.89,-1113.22"/>
<polygon fill="black" stroke="black" points="384.88,-1115.06 392.4,-1122.53 391.18,-1112 384.88,-1115.06"/>
</g>
<!-- 9176208052597847927 -->
<g id="node13" class="node">
<title>9176208052597847927</title>
<polygon fill="none" stroke="black" points="826.69,-845.25 772.69,-845.25 772.69,-809.25 826.69,-809.25 826.69,-845.25"/>
<text text-anchor="middle" x="799.69" y="-823.55" font-family="Helvetica,sans-Serif" font-size="14.00">(1, 0)</text>
</g>
<!-- 9176208052597847927&#45;&gt;&#45;2220334741084121142 -->
<g id="edge12" class="edge">
<title>9176208052597847927&#45;&gt;&#45;2220334741084121142</title>
<path fill="none" stroke="black" d="M772.5,-830.15C698.77,-835.61 496.52,-852.84 436.69,-881.25 425.03,-886.79 413.73,-893.98 403.09,-901.98"/>
<polygon fill="black" stroke="black" points="400.81,-899.32 395.09,-908.23 405.13,-904.83 400.81,-899.32"/>
</g>
<!-- 4314104228141751194 -->
<g id="node24" class="node">
<title>4314104228141751194</title>
<ellipse fill="none" stroke="black" cx="994.69" cy="-983.94" rx="102.88" ry="102.88"/>
<text text-anchor="middle" x="994.69" y="-980.24" font-family="Helvetica,sans-Serif" font-size="14.00">sum_drop_keepdims</text>
</g>
<!-- 9176208052597847927&#45;&gt;4314104228141751194 -->
<g id="edge25" class="edge">
<title>9176208052597847927&#45;&gt;4314104228141751194</title>
<path fill="none" stroke="black" d="M826.99,-843.79C843.83,-853.78 865.6,-867.44 883.69,-881.25 893.52,-888.76 903.52,-896.97 913.27,-905.37"/>
<polygon fill="black" stroke="black" points="911.2,-908.2 921.04,-912.13 915.8,-902.93 911.2,-908.2"/>
</g>
<!-- 3376930631499935513 -->
<g id="node14" class="node">
<title>3376930631499935513</title>
<ellipse fill="none" stroke="black" cx="102.69" cy="-983.94" rx="102.88" ry="102.88"/>
<text text-anchor="middle" x="102.69" y="-980.24" font-family="Helvetica,sans-Serif" font-size="14.00">sum_drop_keepdims</text>
</g>
<!-- 3376930631499935513&#45;&gt;1518354188831621506 -->
<g id="edge13" class="edge">
<title>3376930631499935513&#45;&gt;1518354188831621506</title>
<path fill="none" stroke="black" d="M174.21,-1058.21C194.2,-1078.69 214.57,-1099.56 229.68,-1115.04"/>
<polygon fill="black" stroke="black" points="227.58,-1117.9 237.07,-1122.61 232.59,-1113.01 227.58,-1117.9"/>
</g>
<!-- &#45;5977018670044126680 -->
<g id="node15" class="node">
<title>&#45;5977018670044126680</title>
<polygon fill="none" stroke="black" points="473.69,-845.25 419.69,-845.25 419.69,-809.25 473.69,-809.25 473.69,-845.25"/>
<text text-anchor="middle" x="446.69" y="-823.55" font-family="Helvetica,sans-Serif" font-size="14.00">(2, 0)</text>
</g>
<!-- &#45;5977018670044126680&#45;&gt;3376930631499935513 -->
<g id="edge14" class="edge">
<title>&#45;5977018670044126680&#45;&gt;3376930631499935513</title>
<path fill="none" stroke="black" d="M419.65,-829.91C374.56,-833.63 282.22,-845.34 213.69,-881.25 202.35,-887.2 191.28,-894.59 180.79,-902.67"/>
<polygon fill="black" stroke="black" points="178.54,-899.99 172.9,-908.96 182.9,-905.47 178.54,-899.99"/>
</g>
<!-- &#45;1964076289560728915 -->
<g id="node25" class="node">
<title>&#45;1964076289560728915</title>
<ellipse fill="none" stroke="black" cx="771.69" cy="-983.94" rx="102.88" ry="102.88"/>
<text text-anchor="middle" x="771.69" y="-980.24" font-family="Helvetica,sans-Serif" font-size="14.00">sum_drop_keepdims</text>
</g>
<!-- &#45;5977018670044126680&#45;&gt;&#45;1964076289560728915 -->
<g id="edge27" class="edge">
<title>&#45;5977018670044126680&#45;&gt;&#45;1964076289560728915</title>
<path fill="none" stroke="black" d="M473.91,-830.65C516.13,-835.29 598.96,-848.15 660.69,-881.25 671.89,-887.26 682.83,-894.65 693.22,-902.68"/>
<polygon fill="black" stroke="black" points="691.05,-905.43 701.05,-908.94 695.42,-899.96 691.05,-905.43"/>
</g>
<!-- &#45;4526997237104856826 -->
<g id="node16" class="node">
<title>&#45;4526997237104856826</title>
<ellipse fill="none" stroke="black" cx="1440.69" cy="-983.94" rx="102.88" ry="102.88"/>
<text text-anchor="middle" x="1440.69" y="-980.24" font-family="Helvetica,sans-Serif" font-size="14.00">sum_drop_keepdims</text>
</g>
<!-- &#45;4526997237104856826&#45;&gt;&#45;7078241232913542058 -->
<g id="edge15" class="edge">
<title>&#45;4526997237104856826&#45;&gt;&#45;7078241232913542058</title>
<path fill="none" stroke="black" d="M1380.02,-1067.27C1367.49,-1084.27 1355.2,-1100.95 1345.58,-1114"/>
<polygon fill="black" stroke="black" points="1342.49,-1112.29 1339.38,-1122.42 1348.13,-1116.45 1342.49,-1112.29"/>
</g>
<!-- 3873129981920261372 -->
<g id="node17" class="node">
<title>3873129981920261372</title>
<polygon fill="none" stroke="black" points="1532.69,-845.25 1478.69,-845.25 1478.69,-809.25 1532.69,-809.25 1532.69,-845.25"/>
<text text-anchor="middle" x="1505.69" y="-823.55" font-family="Helvetica,sans-Serif" font-size="14.00">(3, 0)</text>
</g>
<!-- 3873129981920261372&#45;&gt;&#45;4526997237104856826 -->
<g id="edge16" class="edge">
<title>3873129981920261372&#45;&gt;&#45;4526997237104856826</title>
<path fill="none" stroke="black" d="M1498.49,-845.4C1494.67,-854.48 1489.64,-866.45 1484.14,-879.54"/>
<polygon fill="black" stroke="black" points="1480.91,-878.2 1480.26,-888.77 1487.36,-880.91 1480.91,-878.2"/>
</g>
<!-- 2657492636229719589 -->
<g id="node26" class="node">
<title>2657492636229719589</title>
<ellipse fill="none" stroke="black" cx="1663.69" cy="-983.94" rx="102.88" ry="102.88"/>
<text text-anchor="middle" x="1663.69" y="-980.24" font-family="Helvetica,sans-Serif" font-size="14.00">sum_drop_keepdims</text>
</g>
<!-- 3873129981920261372&#45;&gt;2657492636229719589 -->
<g id="edge29" class="edge">
<title>3873129981920261372&#45;&gt;2657492636229719589</title>
<path fill="none" stroke="black" d="M1523.2,-845.4C1538.07,-859.95 1560.53,-881.94 1583.16,-904.1"/>
<polygon fill="black" stroke="black" points="1580.91,-906.79 1590.5,-911.29 1585.8,-901.79 1580.91,-906.79"/>
</g>
<!-- 4071936568394135407 -->
<g id="node18" class="node">
<title>4071936568394135407</title>
<ellipse fill="none" stroke="black" cx="994.69" cy="-1324.62" rx="129.98" ry="129.98"/>
<text text-anchor="middle" x="994.69" y="-1320.92" font-family="Helvetica,sans-Serif" font-size="14.00">aggregate_sum&#45;aggregate</text>
</g>
<!-- 4071936568394135407&#45;&gt;&#45;2262185532304103859 -->
<g id="edge17" class="edge">
<title>4071936568394135407&#45;&gt;&#45;2262185532304103859</title>
<path fill="none" stroke="black" d="M935.43,-1440.36C927.52,-1455.67 920.11,-1470.01 914.19,-1481.48"/>
<polygon fill="black" stroke="black" points="911.06,-1479.92 909.58,-1490.41 917.28,-1483.13 911.06,-1479.92"/>
</g>
<!-- &#45;8639273346516930911 -->
<g id="node19" class="node">
<title>&#45;8639273346516930911</title>
<polygon fill="none" stroke="black" points="873.69,-1158.64 819.69,-1158.64 819.69,-1122.64 873.69,-1122.64 873.69,-1158.64"/>
<text text-anchor="middle" x="846.69" y="-1136.94" font-family="Helvetica,sans-Serif" font-size="14.00">(2, 0)</text>
</g>
<!-- &#45;8639273346516930911&#45;&gt;4071936568394135407 -->
<g id="edge18" class="edge">
<title>&#45;8639273346516930911&#45;&gt;4071936568394135407</title>
<path fill="none" stroke="black" d="M860.61,-1158.76C871.81,-1172.53 888.6,-1193.16 906.53,-1215.22"/>
<polygon fill="black" stroke="black" points="903.89,-1217.52 912.91,-1223.07 909.32,-1213.1 903.89,-1217.52"/>
</g>
<!-- 8064519509235350435 -->
<g id="node20" class="node">
<title>8064519509235350435</title>
<polygon fill="none" stroke="black" points="1168.69,-1158.64 1114.69,-1158.64 1114.69,-1122.64 1168.69,-1122.64 1168.69,-1158.64"/>
<text text-anchor="middle" x="1141.69" y="-1136.94" font-family="Helvetica,sans-Serif" font-size="14.00">(0, 0)</text>
</g>
<!-- 8064519509235350435&#45;&gt;4071936568394135407 -->
<g id="edge19" class="edge">
<title>8064519509235350435&#45;&gt;4071936568394135407</title>
<path fill="none" stroke="black" d="M1127.86,-1158.76C1116.74,-1172.53 1100.07,-1193.16 1082.26,-1215.22"/>
<polygon fill="black" stroke="black" points="1079.48,-1213.09 1075.92,-1223.07 1084.92,-1217.49 1079.48,-1213.09"/>
</g>
<!-- 8213232707537783804 -->
<g id="node21" class="node">
<title>8213232707537783804</title>
<polygon fill="none" stroke="black" points="1557.69,-1158.64 1503.69,-1158.64 1503.69,-1122.64 1557.69,-1122.64 1557.69,-1158.64"/>
<text text-anchor="middle" x="1530.69" y="-1136.94" font-family="Helvetica,sans-Serif" font-size="14.00">(3, 0)</text>
</g>
<!-- 8213232707537783804&#45;&gt;4071936568394135407 -->
<g id="edge20" class="edge">
<title>8213232707537783804&#45;&gt;4071936568394135407</title>
<path fill="none" stroke="black" d="M1503.37,-1150.91C1435.23,-1174.05 1254.12,-1235.54 1127.52,-1278.52"/>
<polygon fill="black" stroke="black" points="1126.08,-1275.32 1117.74,-1281.84 1128.33,-1281.94 1126.08,-1275.32"/>
</g>
<!-- 7846171190948498270 -->
<g id="node22" class="node">
<title>7846171190948498270</title>
<polygon fill="none" stroke="black" points="1021.69,-1158.64 967.69,-1158.64 967.69,-1122.64 1021.69,-1122.64 1021.69,-1158.64"/>
<text text-anchor="middle" x="994.69" y="-1136.94" font-family="Helvetica,sans-Serif" font-size="14.00">(1, 0)</text>
</g>
<!-- 7846171190948498270&#45;&gt;4071936568394135407 -->
<g id="edge21" class="edge">
<title>7846171190948498270&#45;&gt;4071936568394135407</title>
<path fill="none" stroke="black" d="M994.69,-1158.76C994.69,-1165.72 994.69,-1174.45 994.69,-1184.23"/>
<polygon fill="black" stroke="black" points="991.19,-1184.33 994.69,-1194.33 998.19,-1184.33 991.19,-1184.33"/>
</g>
<!-- 3833077939195904258&#45;&gt;8064519509235350435 -->
<g id="edge22" class="edge">
<title>3833077939195904258&#45;&gt;8064519509235350435</title>
<path fill="none" stroke="black" d="M1172.6,-1076.72C1166,-1090.17 1159.68,-1103.01 1154.51,-1113.55"/>
<polygon fill="black" stroke="black" points="1151.36,-1112.01 1150.1,-1122.53 1157.65,-1115.1 1151.36,-1112.01"/>
</g>
<!-- 4314104228141751194&#45;&gt;7846171190948498270 -->
<g id="edge24" class="edge">
<title>4314104228141751194&#45;&gt;7846171190948498270</title>
<path fill="none" stroke="black" d="M994.69,-1086.83C994.69,-1095.95 994.69,-1104.57 994.69,-1112.09"/>
<polygon fill="black" stroke="black" points="991.19,-1112.26 994.69,-1122.26 998.19,-1112.26 991.19,-1112.26"/>
</g>
<!-- &#45;1964076289560728915&#45;&gt;&#45;8639273346516930911 -->
<g id="edge26" class="edge">
<title>&#45;1964076289560728915&#45;&gt;&#45;8639273346516930911</title>
<path fill="none" stroke="black" d="M816.19,-1076.72C822.64,-1090.03 828.81,-1102.75 833.89,-1113.22"/>
<polygon fill="black" stroke="black" points="830.88,-1115.06 838.4,-1122.53 837.18,-1112 830.88,-1115.06"/>
</g>
<!-- 2657492636229719589&#45;&gt;8213232707537783804 -->
<g id="edge28" class="edge">
<title>2657492636229719589&#45;&gt;8213232707537783804</title>
<path fill="none" stroke="black" d="M1597.19,-1062.29C1580.9,-1081.23 1564.62,-1100.17 1552.24,-1114.57"/>
<polygon fill="black" stroke="black" points="1549.3,-1112.63 1545.43,-1122.49 1554.61,-1117.19 1549.3,-1112.63"/>
</g>
<!-- &#45;1157013618540246989 -->
<g id="node27" class="node">
<title>&#45;1157013618540246989</title>
<polygon fill="none" stroke="black" points="1179.69,-773.25 1125.69,-773.25 1125.69,-737.25 1179.69,-737.25 1179.69,-773.25"/>
<text text-anchor="middle" x="1152.69" y="-751.55" font-family="Helvetica,sans-Serif" font-size="14.00">(0, 0)</text>
</g>
<!-- &#45;1157013618540246989&#45;&gt;&#45;673940599366540125 -->
<g id="edge30" class="edge">
<title>&#45;1157013618540246989&#45;&gt;&#45;673940599366540125</title>
<path fill="none" stroke="black" d="M1152.69,-773.56C1152.69,-781.27 1152.69,-790.54 1152.69,-799.14"/>
<polygon fill="black" stroke="black" points="1149.19,-799.15 1152.69,-809.15 1156.19,-799.15 1149.19,-799.15"/>
</g>
<!-- &#45;3594071465280492682 -->
<g id="node28" class="node">
<title>&#45;3594071465280492682</title>
<polygon fill="none" stroke="black" points="826.69,-773.25 772.69,-773.25 772.69,-737.25 826.69,-737.25 826.69,-773.25"/>
<text text-anchor="middle" x="799.69" y="-751.55" font-family="Helvetica,sans-Serif" font-size="14.00">(1, 0)</text>
</g>
<!-- &#45;3594071465280492682&#45;&gt;9176208052597847927 -->
<g id="edge31" class="edge">
<title>&#45;3594071465280492682&#45;&gt;9176208052597847927</title>
<path fill="none" stroke="black" d="M799.69,-773.56C799.69,-781.27 799.69,-790.54 799.69,-799.14"/>
<polygon fill="black" stroke="black" points="796.19,-799.15 799.69,-809.15 803.19,-799.15 796.19,-799.15"/>
</g>
<!-- 6256077186683895370 -->
<g id="node29" class="node">
<title>6256077186683895370</title>
<polygon fill="none" stroke="black" points="473.69,-773.25 419.69,-773.25 419.69,-737.25 473.69,-737.25 473.69,-773.25"/>
<text text-anchor="middle" x="446.69" y="-751.55" font-family="Helvetica,sans-Serif" font-size="14.00">(2, 0)</text>
</g>
<!-- 6256077186683895370&#45;&gt;&#45;5977018670044126680 -->
<g id="edge32" class="edge">
<title>6256077186683895370&#45;&gt;&#45;5977018670044126680</title>
<path fill="none" stroke="black" d="M446.69,-773.56C446.69,-781.27 446.69,-790.54 446.69,-799.14"/>
<polygon fill="black" stroke="black" points="443.19,-799.15 446.69,-809.15 450.19,-799.15 443.19,-799.15"/>
</g>
<!-- 3819019339943649677 -->
<g id="node30" class="node">
<title>3819019339943649677</title>
<polygon fill="none" stroke="black" points="1532.69,-773.25 1478.69,-773.25 1478.69,-737.25 1532.69,-737.25 1532.69,-773.25"/>
<text text-anchor="middle" x="1505.69" y="-751.55" font-family="Helvetica,sans-Serif" font-size="14.00">(3, 0)</text>
</g>
<!-- 3819019339943649677&#45;&gt;3873129981920261372 -->
<g id="edge33" class="edge">
<title>3819019339943649677&#45;&gt;3873129981920261372</title>
<path fill="none" stroke="black" d="M1505.69,-773.56C1505.69,-781.27 1505.69,-790.54 1505.69,-799.14"/>
<polygon fill="black" stroke="black" points="1502.19,-799.15 1505.69,-809.15 1509.19,-799.15 1502.19,-799.15"/>
</g>
<!-- &#45;4988663426923991882 -->
<g id="node31" class="node">
<title>&#45;4988663426923991882</title>
<ellipse fill="none" stroke="black" cx="1123.69" cy="-164.94" rx="92.88" ry="92.88"/>
<text text-anchor="middle" x="1123.69" y="-161.24" font-family="Helvetica,sans-Serif" font-size="14.00">make_dask_chunk</text>
</g>
<!-- 7902448092586204368 -->
<g id="node32" class="node">
<title>7902448092586204368</title>
<polygon fill="none" stroke="black" points="1169.69,-329.88 1115.69,-329.88 1115.69,-293.88 1169.69,-293.88 1169.69,-329.88"/>
<text text-anchor="middle" x="1142.69" y="-308.18" font-family="Helvetica,sans-Serif" font-size="14.00">(0, 0)</text>
</g>
<!-- &#45;4988663426923991882&#45;&gt;7902448092586204368 -->
<g id="edge34" class="edge">
<title>&#45;4988663426923991882&#45;&gt;7902448092586204368</title>
<path fill="none" stroke="black" d="M1135.67,-257.32C1136.9,-266.7 1138.07,-275.62 1139.09,-283.4"/>
<polygon fill="black" stroke="black" points="1135.65,-284.1 1140.42,-293.56 1142.59,-283.19 1135.65,-284.1"/>
</g>
<!-- &#45;4391743975015542441 -->
<g id="node43" class="node">
<title>&#45;4391743975015542441</title>
<ellipse fill="none" stroke="black" cx="1152.69" cy="-533.57" rx="167.87" ry="167.87"/>
<text text-anchor="middle" x="1152.69" y="-529.87" font-family="Helvetica,sans-Serif" font-size="14.00">aggregate_sum&#45;aggregate&#45;getitem</text>
</g>
<!-- 7902448092586204368&#45;&gt;&#45;4391743975015542441 -->
<g id="edge49" class="edge">
<title>7902448092586204368&#45;&gt;&#45;4391743975015542441</title>
<path fill="none" stroke="black" d="M1143.48,-330.12C1143.79,-337.03 1144.18,-345.69 1144.63,-355.51"/>
<polygon fill="black" stroke="black" points="1141.14,-355.87 1145.1,-365.7 1148.14,-355.56 1141.14,-355.87"/>
</g>
<!-- 3221941148100507025 -->
<g id="node33" class="node">
<title>3221941148100507025</title>
<polygon fill="none" stroke="black" points="974.69,-36 920.69,-36 920.69,0 974.69,0 974.69,-36"/>
</g>
<!-- 3221941148100507025&#45;&gt;&#45;4988663426923991882 -->
<g id="edge35" class="edge">
<title>3221941148100507025&#45;&gt;&#45;4988663426923991882</title>
<path fill="none" stroke="black" d="M968.57,-36.2C987.46,-51.76 1016.52,-75.68 1044.4,-98.64"/>
<polygon fill="black" stroke="black" points="1042.28,-101.43 1052.22,-105.08 1046.73,-96.03 1042.28,-101.43"/>
</g>
<!-- 2781542746098711497 -->
<g id="node34" class="node">
<title>2781542746098711497</title>
<ellipse fill="none" stroke="black" cx="845.69" cy="-164.94" rx="92.88" ry="92.88"/>
<text text-anchor="middle" x="845.69" y="-161.24" font-family="Helvetica,sans-Serif" font-size="14.00">make_dask_chunk</text>
</g>
<!-- 3221941148100507025&#45;&gt;2781542746098711497 -->
<g id="edge37" class="edge">
<title>3221941148100507025&#45;&gt;2781542746098711497</title>
<path fill="none" stroke="black" d="M935.59,-36.2C927.56,-47.6 916.37,-63.51 904.6,-80.23"/>
<polygon fill="black" stroke="black" points="901.68,-78.3 898.79,-88.49 907.41,-82.32 901.68,-78.3"/>
</g>
<!-- 8831127890309160961 -->
<g id="node36" class="node">
<title>8831127890309160961</title>
<ellipse fill="none" stroke="black" cx="604.69" cy="-164.94" rx="92.88" ry="92.88"/>
<text text-anchor="middle" x="604.69" y="-161.24" font-family="Helvetica,sans-Serif" font-size="14.00">make_dask_chunk</text>
</g>
<!-- 3221941148100507025&#45;&gt;8831127890309160961 -->
<g id="edge39" class="edge">
<title>3221941148100507025&#45;&gt;8831127890309160961</title>
<path fill="none" stroke="black" d="M920.67,-23.09C880.69,-29.79 804.02,-45.11 743.69,-72 724.73,-80.45 705.47,-91.39 687.58,-102.76"/>
<polygon fill="black" stroke="black" points="685.41,-99.99 678.92,-108.36 689.21,-105.87 685.41,-99.99"/>
</g>
<!-- &#45;6961649094015896995 -->
<g id="node38" class="node">
<title>&#45;6961649094015896995</title>
<ellipse fill="none" stroke="black" cx="1439.69" cy="-164.94" rx="92.88" ry="92.88"/>
<text text-anchor="middle" x="1439.69" y="-161.24" font-family="Helvetica,sans-Serif" font-size="14.00">make_dask_chunk</text>
</g>
<!-- 3221941148100507025&#45;&gt;&#45;6961649094015896995 -->
<g id="edge41" class="edge">
<title>3221941148100507025&#45;&gt;&#45;6961649094015896995</title>
<path fill="none" stroke="black" d="M975,-22.2C1025.37,-28.55 1135.96,-44.53 1225.69,-72 1266.5,-84.49 1310.04,-102.32 1347.12,-118.95"/>
<polygon fill="black" stroke="black" points="1345.85,-122.21 1356.4,-123.15 1348.73,-115.84 1345.85,-122.21"/>
</g>
<!-- &#45;8582996444879224813 -->
<g id="node35" class="node">
<title>&#45;8582996444879224813</title>
<polygon fill="none" stroke="black" points="835.69,-329.88 781.69,-329.88 781.69,-293.88 835.69,-293.88 835.69,-329.88"/>
<text text-anchor="middle" x="808.69" y="-308.18" font-family="Helvetica,sans-Serif" font-size="14.00">(1, 0)</text>
</g>
<!-- 2781542746098711497&#45;&gt;&#45;8582996444879224813 -->
<g id="edge36" class="edge">
<title>2781542746098711497&#45;&gt;&#45;8582996444879224813</title>
<path fill="none" stroke="black" d="M822.89,-255.26C820.26,-265.58 817.74,-275.42 815.59,-283.88"/>
<polygon fill="black" stroke="black" points="812.14,-283.22 813.06,-293.78 818.92,-284.95 812.14,-283.22"/>
</g>
<!-- 2500660996280315815 -->
<g id="node42" class="node">
<title>2500660996280315815</title>
<ellipse fill="none" stroke="black" cx="799.69" cy="-533.57" rx="167.87" ry="167.87"/>
<text text-anchor="middle" x="799.69" y="-529.87" font-family="Helvetica,sans-Serif" font-size="14.00">aggregate_sum&#45;aggregate&#45;getitem</text>
</g>
<!-- &#45;8582996444879224813&#45;&gt;2500660996280315815 -->
<g id="edge47" class="edge">
<title>&#45;8582996444879224813&#45;&gt;2500660996280315815</title>
<path fill="none" stroke="black" d="M807.98,-330.12C807.7,-337.03 807.35,-345.69 806.94,-355.51"/>
<polygon fill="black" stroke="black" points="803.44,-355.57 806.53,-365.7 810.43,-355.86 803.44,-355.57"/>
</g>
<!-- 7426689782090081110 -->
<g id="node37" class="node">
<title>7426689782090081110</title>
<polygon fill="none" stroke="black" points="557.69,-329.88 503.69,-329.88 503.69,-293.88 557.69,-293.88 557.69,-329.88"/>
<text text-anchor="middle" x="530.69" y="-308.18" font-family="Helvetica,sans-Serif" font-size="14.00">(2, 0)</text>
</g>
<!-- 8831127890309160961&#45;&gt;7426689782090081110 -->
<g id="edge38" class="edge">
<title>8831127890309160961&#45;&gt;7426689782090081110</title>
<path fill="none" stroke="black" d="M562.72,-248.15C555.97,-261.36 549.46,-274.13 544.08,-284.66"/>
<polygon fill="black" stroke="black" points="540.92,-283.15 539.49,-293.65 547.15,-286.34 540.92,-283.15"/>
</g>
<!-- &#45;575947112143013227 -->
<g id="node40" class="node">
<title>&#45;575947112143013227</title>
<ellipse fill="none" stroke="black" cx="446.69" cy="-533.57" rx="167.87" ry="167.87"/>
<text text-anchor="middle" x="446.69" y="-529.87" font-family="Helvetica,sans-Serif" font-size="14.00">aggregate_sum&#45;aggregate&#45;getitem</text>
</g>
<!-- 7426689782090081110&#45;&gt;&#45;575947112143013227 -->
<g id="edge43" class="edge">
<title>7426689782090081110&#45;&gt;&#45;575947112143013227</title>
<path fill="none" stroke="black" d="M524.1,-330.12C520.45,-339.67 515.51,-352.58 509.89,-367.29"/>
<polygon fill="black" stroke="black" points="506.61,-366.07 506.3,-376.67 513.14,-368.57 506.61,-366.07"/>
</g>
<!-- &#45;1169905639655082454 -->
<g id="node39" class="node">
<title>&#45;1169905639655082454</title>
<polygon fill="none" stroke="black" points="1499.69,-329.88 1445.69,-329.88 1445.69,-293.88 1499.69,-293.88 1499.69,-329.88"/>
<text text-anchor="middle" x="1472.69" y="-308.18" font-family="Helvetica,sans-Serif" font-size="14.00">(3, 0)</text>
</g>
<!-- &#45;6961649094015896995&#45;&gt;&#45;1169905639655082454 -->
<g id="edge40" class="edge">
<title>&#45;6961649094015896995&#45;&gt;&#45;1169905639655082454</title>
<path fill="none" stroke="black" d="M1460.12,-255.67C1462.39,-265.66 1464.56,-275.18 1466.44,-283.42"/>
<polygon fill="black" stroke="black" points="1463.09,-284.47 1468.72,-293.44 1469.91,-282.91 1463.09,-284.47"/>
</g>
<!-- &#45;685899542937481634 -->
<g id="node41" class="node">
<title>&#45;685899542937481634</title>
<ellipse fill="none" stroke="black" cx="1505.69" cy="-533.57" rx="167.87" ry="167.87"/>
<text text-anchor="middle" x="1505.69" y="-529.87" font-family="Helvetica,sans-Serif" font-size="14.00">aggregate_sum&#45;aggregate&#45;getitem</text>
</g>
<!-- &#45;1169905639655082454&#45;&gt;&#45;685899542937481634 -->
<g id="edge45" class="edge">
<title>&#45;1169905639655082454&#45;&gt;&#45;685899542937481634</title>
<path fill="none" stroke="black" d="M1475.28,-330.12C1476.39,-337.48 1477.79,-346.83 1479.39,-357.46"/>
<polygon fill="black" stroke="black" points="1475.96,-358.2 1480.91,-367.57 1482.88,-357.16 1475.96,-358.2"/>
</g>
<!-- &#45;575947112143013227&#45;&gt;6256077186683895370 -->
<g id="edge42" class="edge">
<title>&#45;575947112143013227&#45;&gt;6256077186683895370</title>
<path fill="none" stroke="black" d="M446.69,-701.35C446.69,-710.8 446.69,-719.47 446.69,-726.93"/>
<polygon fill="black" stroke="black" points="443.19,-726.97 446.69,-736.97 450.19,-726.97 443.19,-726.97"/>
</g>
<!-- &#45;685899542937481634&#45;&gt;3819019339943649677 -->
<g id="edge44" class="edge">
<title>&#45;685899542937481634&#45;&gt;3819019339943649677</title>
<path fill="none" stroke="black" d="M1505.69,-701.35C1505.69,-710.8 1505.69,-719.47 1505.69,-726.93"/>
<polygon fill="black" stroke="black" points="1502.19,-726.97 1505.69,-736.97 1509.19,-726.97 1502.19,-726.97"/>
</g>
<!-- 2500660996280315815&#45;&gt;&#45;3594071465280492682 -->
<g id="edge46" class="edge">
<title>2500660996280315815&#45;&gt;&#45;3594071465280492682</title>
<path fill="none" stroke="black" d="M799.69,-701.35C799.69,-710.8 799.69,-719.47 799.69,-726.93"/>
<polygon fill="black" stroke="black" points="796.19,-726.97 799.69,-736.97 803.19,-726.97 796.19,-726.97"/>
</g>
<!-- &#45;4391743975015542441&#45;&gt;&#45;1157013618540246989 -->
<g id="edge48" class="edge">
<title>&#45;4391743975015542441&#45;&gt;&#45;1157013618540246989</title>
<path fill="none" stroke="black" d="M1152.69,-701.35C1152.69,-710.8 1152.69,-719.47 1152.69,-726.93"/>
<polygon fill="black" stroke="black" points="1149.19,-726.97 1152.69,-736.97 1156.19,-726.97 1149.19,-726.97"/>
</g>
</g>
</svg>
