<?xml version="1.0" encoding="UTF-8" standalone="no"?>
<!DOCTYPE svg PUBLIC "-//W3C//DTD SVG 1.1//EN"
 "http://www.w3.org/Graphics/SVG/1.1/DTD/svg11.dtd">
<!-- Generated by graphviz version 2.43.0 (0)
 -->
<!-- Title: %3 Pages: 1 -->
<svg width="1774pt" height="1144pt"
 viewBox="0.00 0.00 1774.38 1144.14" xmlns="http://www.w3.org/2000/svg" xmlns:xlink="http://www.w3.org/1999/xlink">
<g id="graph0" class="graph" transform="scale(1 1) rotate(0) translate(4 1140.14)">
<title>%3</title>
<polygon fill="white" stroke="transparent" points="-4,4 -4,-1140.14 1770.38,-1140.14 1770.38,4 -4,4"/>
<!-- 4129143560634167756 -->
<g id="node1" class="node">
<title>4129143560634167756</title>
<ellipse fill="none" stroke="black" cx="771.69" cy="-1036.19" rx="27.9" ry="27.9"/>
<text text-anchor="middle" x="771.69" y="-1032.49" font-family="Helvetica,sans-Serif" font-size="14.00">mul</text>
</g>
<!-- &#45;3387342382244515567 -->
<g id="node2" class="node">
<title>&#45;3387342382244515567</title>
<polygon fill="none" stroke="black" points="798.69,-1136.14 744.69,-1136.14 744.69,-1100.14 798.69,-1100.14 798.69,-1136.14"/>
<text text-anchor="middle" x="771.69" y="-1114.44" font-family="Helvetica,sans-Serif" font-size="14.00">0</text>
</g>
<!-- 4129143560634167756&#45;&gt;&#45;3387342382244515567 -->
<g id="edge1" class="edge">
<title>4129143560634167756&#45;&gt;&#45;3387342382244515567</title>
<path fill="none" stroke="black" d="M771.69,-1064.26C771.69,-1072.45 771.69,-1081.45 771.69,-1089.66"/>
<polygon fill="black" stroke="black" points="768.19,-1089.88 771.69,-1099.88 775.19,-1089.88 768.19,-1089.88"/>
</g>
<!-- 6631641743457555873 -->
<g id="node3" class="node">
<title>6631641743457555873</title>
<polygon fill="none" stroke="black" points="762.69,-972.25 708.69,-972.25 708.69,-936.25 762.69,-936.25 762.69,-972.25"/>
<text text-anchor="middle" x="735.69" y="-950.55" font-family="Helvetica,sans-Serif" font-size="14.00">0</text>
</g>
<!-- 6631641743457555873&#45;&gt;4129143560634167756 -->
<g id="edge2" class="edge">
<title>6631641743457555873&#45;&gt;4129143560634167756</title>
<path fill="none" stroke="black" d="M743.5,-972.59C747.26,-980.95 751.91,-991.26 756.34,-1001.1"/>
<polygon fill="black" stroke="black" points="753.18,-1002.61 760.48,-1010.29 759.56,-999.74 753.18,-1002.61"/>
</g>
<!-- 4136182513563278855 -->
<g id="node4" class="node">
<title>4136182513563278855</title>
<polygon fill="none" stroke="black" points="927.69,-972.25 873.69,-972.25 873.69,-936.25 927.69,-936.25 927.69,-972.25"/>
<text text-anchor="middle" x="900.69" y="-950.55" font-family="Helvetica,sans-Serif" font-size="14.00">0</text>
</g>
<!-- 4136182513563278855&#45;&gt;4129143560634167756 -->
<g id="edge3" class="edge">
<title>4136182513563278855&#45;&gt;4129143560634167756</title>
<path fill="none" stroke="black" d="M873.65,-972.01C853.35,-984.59 825.48,-1001.86 804,-1015.17"/>
<polygon fill="black" stroke="black" points="801.89,-1012.36 795.23,-1020.6 805.58,-1018.31 801.89,-1012.36"/>
</g>
<!-- &#45;5095288791548741372 -->
<g id="node5" class="node">
<title>&#45;5095288791548741372</title>
<ellipse fill="none" stroke="black" cx="994.69" cy="-770.26" rx="129.98" ry="129.98"/>
<text text-anchor="middle" x="994.69" y="-766.56" font-family="Helvetica,sans-Serif" font-size="14.00">aggregate_sum&#45;aggregate</text>
</g>
<!-- &#45;5095288791548741372&#45;&gt;4136182513563278855 -->
<g id="edge4" class="edge">
<title>&#45;5095288791548741372&#45;&gt;4136182513563278855</title>
<path fill="none" stroke="black" d="M935.43,-886C927.52,-901.3 920.11,-915.64 914.19,-927.12"/>
<polygon fill="black" stroke="black" points="911.06,-925.55 909.58,-936.04 917.28,-928.76 911.06,-925.55"/>
</g>
<!-- &#45;4142466085203303927 -->
<g id="node6" class="node">
<title>&#45;4142466085203303927</title>
<polygon fill="none" stroke="black" points="1557.69,-604.27 1503.69,-604.27 1503.69,-568.27 1557.69,-568.27 1557.69,-604.27"/>
<text text-anchor="middle" x="1530.69" y="-582.57" font-family="Helvetica,sans-Serif" font-size="14.00">(2, 0)</text>
</g>
<!-- &#45;4142466085203303927&#45;&gt;&#45;5095288791548741372 -->
<g id="edge5" class="edge">
<title>&#45;4142466085203303927&#45;&gt;&#45;5095288791548741372</title>
<path fill="none" stroke="black" d="M1503.37,-596.54C1435.23,-619.68 1254.12,-681.17 1127.52,-724.16"/>
<polygon fill="black" stroke="black" points="1126.08,-720.95 1117.74,-727.48 1128.33,-727.58 1126.08,-720.95"/>
</g>
<!-- 5558969368458650756 -->
<g id="node7" class="node">
<title>5558969368458650756</title>
<polygon fill="none" stroke="black" points="873.69,-604.27 819.69,-604.27 819.69,-568.27 873.69,-568.27 873.69,-604.27"/>
<text text-anchor="middle" x="846.69" y="-582.57" font-family="Helvetica,sans-Serif" font-size="14.00">(0, 0)</text>
</g>
<!-- 5558969368458650756&#45;&gt;&#45;5095288791548741372 -->
<g id="edge6" class="edge">
<title>5558969368458650756&#45;&gt;&#45;5095288791548741372</title>
<path fill="none" stroke="black" d="M860.61,-604.39C871.81,-618.16 888.6,-638.8 906.53,-660.85"/>
<polygon fill="black" stroke="black" points="903.89,-663.15 912.91,-668.7 909.32,-658.73 903.89,-663.15"/>
</g>
<!-- 4864862739675675333 -->
<g id="node8" class="node">
<title>4864862739675675333</title>
<polygon fill="none" stroke="black" points="1168.69,-604.27 1114.69,-604.27 1114.69,-568.27 1168.69,-568.27 1168.69,-604.27"/>
<text text-anchor="middle" x="1141.69" y="-582.57" font-family="Helvetica,sans-Serif" font-size="14.00">(3, 0)</text>
</g>
<!-- 4864862739675675333&#45;&gt;&#45;5095288791548741372 -->
<g id="edge7" class="edge">
<title>4864862739675675333&#45;&gt;&#45;5095288791548741372</title>
<path fill="none" stroke="black" d="M1127.86,-604.39C1116.74,-618.16 1100.07,-638.8 1082.26,-660.85"/>
<polygon fill="black" stroke="black" points="1079.48,-658.72 1075.92,-668.7 1084.92,-663.12 1079.48,-658.72"/>
</g>
<!-- &#45;2548228065548467026 -->
<g id="node9" class="node">
<title>&#45;2548228065548467026</title>
<polygon fill="none" stroke="black" points="1021.69,-604.27 967.69,-604.27 967.69,-568.27 1021.69,-568.27 1021.69,-604.27"/>
<text text-anchor="middle" x="994.69" y="-582.57" font-family="Helvetica,sans-Serif" font-size="14.00">(1, 0)</text>
</g>
<!-- &#45;2548228065548467026&#45;&gt;&#45;5095288791548741372 -->
<g id="edge8" class="edge">
<title>&#45;2548228065548467026&#45;&gt;&#45;5095288791548741372</title>
<path fill="none" stroke="black" d="M994.69,-604.39C994.69,-611.36 994.69,-620.08 994.69,-629.86"/>
<polygon fill="black" stroke="black" points="991.19,-629.96 994.69,-639.96 998.19,-629.96 991.19,-629.96"/>
</g>
<!-- 3883567591615069273 -->
<g id="node10" class="node">
<title>3883567591615069273</title>
<ellipse fill="none" stroke="black" cx="771.69" cy="-429.58" rx="102.88" ry="102.88"/>
<text text-anchor="middle" x="771.69" y="-425.88" font-family="Helvetica,sans-Serif" font-size="14.00">sum_drop_keepdims</text>
</g>
<!-- 3883567591615069273&#45;&gt;5558969368458650756 -->
<g id="edge9" class="edge">
<title>3883567591615069273&#45;&gt;5558969368458650756</title>
<path fill="none" stroke="black" d="M816.19,-522.35C822.64,-535.66 828.81,-548.38 833.89,-558.86"/>
<polygon fill="black" stroke="black" points="830.88,-560.69 838.4,-568.16 837.18,-557.64 830.88,-560.69"/>
</g>
<!-- &#45;5671301063481295077 -->
<g id="node11" class="node">
<title>&#45;5671301063481295077</title>
<polygon fill="none" stroke="black" points="798.69,-290.89 744.69,-290.89 744.69,-254.89 798.69,-254.89 798.69,-290.89"/>
<text text-anchor="middle" x="771.69" y="-269.19" font-family="Helvetica,sans-Serif" font-size="14.00">(0, 0)</text>
</g>
<!-- &#45;5671301063481295077&#45;&gt;3883567591615069273 -->
<g id="edge10" class="edge">
<title>&#45;5671301063481295077&#45;&gt;3883567591615069273</title>
<path fill="none" stroke="black" d="M771.69,-291.03C771.69,-298.11 771.69,-306.95 771.69,-316.72"/>
<polygon fill="black" stroke="black" points="768.19,-316.76 771.69,-326.76 775.19,-316.76 768.19,-316.76"/>
</g>
<!-- 8904970697874514579 -->
<g id="node23" class="node">
<title>8904970697874514579</title>
<ellipse fill="none" stroke="black" cx="102.69" cy="-429.58" rx="102.88" ry="102.88"/>
<text text-anchor="middle" x="102.69" y="-425.88" font-family="Helvetica,sans-Serif" font-size="14.00">sum_drop_keepdims</text>
</g>
<!-- &#45;5671301063481295077&#45;&gt;8904970697874514579 -->
<g id="edge23" class="edge">
<title>&#45;5671301063481295077&#45;&gt;8904970697874514579</title>
<path fill="none" stroke="black" d="M744.53,-274.2C646.33,-275.68 310.51,-283.86 213.69,-326.89 201.89,-332.13 190.51,-339.14 179.83,-347.03"/>
<polygon fill="black" stroke="black" points="177.58,-344.35 171.8,-353.23 181.86,-349.89 177.58,-344.35"/>
</g>
<!-- &#45;3235335911702602986 -->
<g id="node12" class="node">
<title>&#45;3235335911702602986</title>
<ellipse fill="none" stroke="black" cx="994.69" cy="-429.58" rx="102.88" ry="102.88"/>
<text text-anchor="middle" x="994.69" y="-425.88" font-family="Helvetica,sans-Serif" font-size="14.00">sum_drop_keepdims</text>
</g>
<!-- &#45;3235335911702602986&#45;&gt;&#45;2548228065548467026 -->
<g id="edge11" class="edge">
<title>&#45;3235335911702602986&#45;&gt;&#45;2548228065548467026</title>
<path fill="none" stroke="black" d="M994.69,-532.47C994.69,-541.59 994.69,-550.2 994.69,-557.72"/>
<polygon fill="black" stroke="black" points="991.19,-557.89 994.69,-567.89 998.19,-557.89 991.19,-557.89"/>
</g>
<!-- &#45;3710001527237172642 -->
<g id="node13" class="node">
<title>&#45;3710001527237172642</title>
<polygon fill="none" stroke="black" points="992.69,-290.89 938.69,-290.89 938.69,-254.89 992.69,-254.89 992.69,-290.89"/>
<text text-anchor="middle" x="965.69" y="-269.19" font-family="Helvetica,sans-Serif" font-size="14.00">(1, 0)</text>
</g>
<!-- &#45;3710001527237172642&#45;&gt;&#45;3235335911702602986 -->
<g id="edge12" class="edge">
<title>&#45;3710001527237172642&#45;&gt;&#45;3235335911702602986</title>
<path fill="none" stroke="black" d="M968.91,-291.03C970.32,-298.56 972.1,-308.08 974.07,-318.58"/>
<polygon fill="black" stroke="black" points="970.64,-319.29 975.93,-328.48 977.52,-318 970.64,-319.29"/>
</g>
<!-- &#45;5216290207533484343 -->
<g id="node24" class="node">
<title>&#45;5216290207533484343</title>
<ellipse fill="none" stroke="black" cx="325.69" cy="-429.58" rx="102.88" ry="102.88"/>
<text text-anchor="middle" x="325.69" y="-425.88" font-family="Helvetica,sans-Serif" font-size="14.00">sum_drop_keepdims</text>
</g>
<!-- &#45;3710001527237172642&#45;&gt;&#45;5216290207533484343 -->
<g id="edge25" class="edge">
<title>&#45;3710001527237172642&#45;&gt;&#45;5216290207533484343</title>
<path fill="none" stroke="black" d="M938.58,-276.89C907.12,-280.36 853.66,-286.18 807.69,-290.89 725.29,-299.32 512.35,-293.17 436.69,-326.89 424.9,-332.14 413.52,-339.16 402.84,-347.06"/>
<polygon fill="black" stroke="black" points="400.59,-344.37 394.81,-353.25 404.87,-349.91 400.59,-344.37"/>
</g>
<!-- 6213552774269308815 -->
<g id="node14" class="node">
<title>6213552774269308815</title>
<ellipse fill="none" stroke="black" cx="1663.69" cy="-429.58" rx="102.88" ry="102.88"/>
<text text-anchor="middle" x="1663.69" y="-425.88" font-family="Helvetica,sans-Serif" font-size="14.00">sum_drop_keepdims</text>
</g>
<!-- 6213552774269308815&#45;&gt;&#45;4142466085203303927 -->
<g id="edge13" class="edge">
<title>6213552774269308815&#45;&gt;&#45;4142466085203303927</title>
<path fill="none" stroke="black" d="M1597.19,-507.92C1580.9,-526.87 1564.62,-545.81 1552.24,-560.21"/>
<polygon fill="black" stroke="black" points="1549.3,-558.26 1545.43,-568.12 1554.61,-562.82 1549.3,-558.26"/>
</g>
<!-- &#45;5304239546892009543 -->
<g id="node15" class="node">
<title>&#45;5304239546892009543</title>
<polygon fill="none" stroke="black" points="1467.69,-290.89 1413.69,-290.89 1413.69,-254.89 1467.69,-254.89 1467.69,-290.89"/>
<text text-anchor="middle" x="1440.69" y="-269.19" font-family="Helvetica,sans-Serif" font-size="14.00">(2, 0)</text>
</g>
<!-- &#45;5304239546892009543&#45;&gt;6213552774269308815 -->
<g id="edge14" class="edge">
<title>&#45;5304239546892009543&#45;&gt;6213552774269308815</title>
<path fill="none" stroke="black" d="M1468.15,-284.18C1491.61,-293.58 1525.73,-308.77 1552.69,-326.89 1563.05,-333.85 1573.4,-341.75 1583.39,-350"/>
<polygon fill="black" stroke="black" points="1581.41,-352.91 1591.32,-356.67 1585.92,-347.56 1581.41,-352.91"/>
</g>
<!-- &#45;5334933150231046581 -->
<g id="node25" class="node">
<title>&#45;5334933150231046581</title>
<ellipse fill="none" stroke="black" cx="1440.69" cy="-429.58" rx="102.88" ry="102.88"/>
<text text-anchor="middle" x="1440.69" y="-425.88" font-family="Helvetica,sans-Serif" font-size="14.00">sum_drop_keepdims</text>
</g>
<!-- &#45;5304239546892009543&#45;&gt;&#45;5334933150231046581 -->
<g id="edge27" class="edge">
<title>&#45;5304239546892009543&#45;&gt;&#45;5334933150231046581</title>
<path fill="none" stroke="black" d="M1440.69,-291.03C1440.69,-298.11 1440.69,-306.95 1440.69,-316.72"/>
<polygon fill="black" stroke="black" points="1437.19,-316.76 1440.69,-326.76 1444.19,-316.76 1437.19,-316.76"/>
</g>
<!-- 580460951169926228 -->
<g id="node16" class="node">
<title>580460951169926228</title>
<ellipse fill="none" stroke="black" cx="1217.69" cy="-429.58" rx="102.88" ry="102.88"/>
<text text-anchor="middle" x="1217.69" y="-425.88" font-family="Helvetica,sans-Serif" font-size="14.00">sum_drop_keepdims</text>
</g>
<!-- 580460951169926228&#45;&gt;4864862739675675333 -->
<g id="edge15" class="edge">
<title>580460951169926228&#45;&gt;4864862739675675333</title>
<path fill="none" stroke="black" d="M1172.6,-522.35C1166,-535.8 1159.68,-548.64 1154.51,-559.18"/>
<polygon fill="black" stroke="black" points="1151.36,-557.64 1150.1,-568.16 1157.65,-560.73 1151.36,-557.64"/>
</g>
<!-- 5035307092810424291 -->
<g id="node17" class="node">
<title>5035307092810424291</title>
<polygon fill="none" stroke="black" points="1157.69,-290.89 1103.69,-290.89 1103.69,-254.89 1157.69,-254.89 1157.69,-290.89"/>
<text text-anchor="middle" x="1130.69" y="-269.19" font-family="Helvetica,sans-Serif" font-size="14.00">(3, 0)</text>
</g>
<!-- 5035307092810424291&#45;&gt;580460951169926228 -->
<g id="edge16" class="edge">
<title>5035307092810424291&#45;&gt;580460951169926228</title>
<path fill="none" stroke="black" d="M1140.33,-291.03C1146.14,-301.36 1154.05,-315.43 1162.61,-330.64"/>
<polygon fill="black" stroke="black" points="1159.76,-332.71 1167.71,-339.71 1165.86,-329.28 1159.76,-332.71"/>
</g>
<!-- 5207883054873712696 -->
<g id="node26" class="node">
<title>5207883054873712696</title>
<ellipse fill="none" stroke="black" cx="548.69" cy="-429.58" rx="102.88" ry="102.88"/>
<text text-anchor="middle" x="548.69" y="-425.88" font-family="Helvetica,sans-Serif" font-size="14.00">sum_drop_keepdims</text>
</g>
<!-- 5035307092810424291&#45;&gt;5207883054873712696 -->
<g id="edge29" class="edge">
<title>5035307092810424291&#45;&gt;5207883054873712696</title>
<path fill="none" stroke="black" d="M1103.54,-277.68C1077.45,-281.27 1036.91,-286.71 1001.69,-290.89 849.91,-308.87 799.04,-264.11 659.69,-326.89 647.92,-332.19 636.55,-339.23 625.88,-347.15"/>
<polygon fill="black" stroke="black" points="623.63,-344.47 617.86,-353.36 627.91,-350.01 623.63,-344.47"/>
</g>
<!-- &#45;2973941279557365939 -->
<g id="node18" class="node">
<title>&#45;2973941279557365939</title>
<ellipse fill="none" stroke="black" cx="548.69" cy="-770.26" rx="129.98" ry="129.98"/>
<text text-anchor="middle" x="548.69" y="-766.56" font-family="Helvetica,sans-Serif" font-size="14.00">aggregate_sum&#45;aggregate</text>
</g>
<!-- &#45;2973941279557365939&#45;&gt;6631641743457555873 -->
<g id="edge17" class="edge">
<title>&#45;2973941279557365939&#45;&gt;6631641743457555873</title>
<path fill="none" stroke="black" d="M641.37,-861.45C666.92,-886.32 692.56,-911.27 710.64,-928.87"/>
<polygon fill="black" stroke="black" points="708.3,-931.47 717.91,-935.94 713.18,-926.46 708.3,-931.47"/>
</g>
<!-- &#45;3286865800911966198 -->
<g id="node19" class="node">
<title>&#45;3286865800911966198</title>
<polygon fill="none" stroke="black" points="280.69,-604.27 226.69,-604.27 226.69,-568.27 280.69,-568.27 280.69,-604.27"/>
<text text-anchor="middle" x="253.69" y="-582.57" font-family="Helvetica,sans-Serif" font-size="14.00">(0, 0)</text>
</g>
<!-- &#45;3286865800911966198&#45;&gt;&#45;2973941279557365939 -->
<g id="edge18" class="edge">
<title>&#45;3286865800911966198&#45;&gt;&#45;2973941279557365939</title>
<path fill="none" stroke="black" d="M280.92,-604.06C314.83,-624.99 375,-662.1 429.72,-695.86"/>
<polygon fill="black" stroke="black" points="428.1,-698.98 438.45,-701.25 431.78,-693.02 428.1,-698.98"/>
</g>
<!-- 417384953289426507 -->
<g id="node20" class="node">
<title>417384953289426507</title>
<polygon fill="none" stroke="black" points="575.69,-604.27 521.69,-604.27 521.69,-568.27 575.69,-568.27 575.69,-604.27"/>
<text text-anchor="middle" x="548.69" y="-582.57" font-family="Helvetica,sans-Serif" font-size="14.00">(3, 0)</text>
</g>
<!-- 417384953289426507&#45;&gt;&#45;2973941279557365939 -->
<g id="edge19" class="edge">
<title>417384953289426507&#45;&gt;&#45;2973941279557365939</title>
<path fill="none" stroke="black" d="M548.69,-604.39C548.69,-611.36 548.69,-620.08 548.69,-629.86"/>
<polygon fill="black" stroke="black" points="545.19,-629.96 548.69,-639.96 552.19,-629.96 545.19,-629.96"/>
</g>
<!-- 7052680838790467636 -->
<g id="node21" class="node">
<title>7052680838790467636</title>
<polygon fill="none" stroke="black" points="427.69,-604.27 373.69,-604.27 373.69,-568.27 427.69,-568.27 427.69,-604.27"/>
<text text-anchor="middle" x="400.69" y="-582.57" font-family="Helvetica,sans-Serif" font-size="14.00">(1, 0)</text>
</g>
<!-- 7052680838790467636&#45;&gt;&#45;2973941279557365939 -->
<g id="edge20" class="edge">
<title>7052680838790467636&#45;&gt;&#45;2973941279557365939</title>
<path fill="none" stroke="black" d="M414.61,-604.39C425.81,-618.16 442.6,-638.8 460.53,-660.85"/>
<polygon fill="black" stroke="black" points="457.89,-663.15 466.91,-668.7 463.32,-658.73 457.89,-663.15"/>
</g>
<!-- 9013980375034590071 -->
<g id="node22" class="node">
<title>9013980375034590071</title>
<polygon fill="none" stroke="black" points="1353.69,-604.27 1299.69,-604.27 1299.69,-568.27 1353.69,-568.27 1353.69,-604.27"/>
<text text-anchor="middle" x="1326.69" y="-582.57" font-family="Helvetica,sans-Serif" font-size="14.00">(2, 0)</text>
</g>
<!-- 9013980375034590071&#45;&gt;&#45;2973941279557365939 -->
<g id="edge21" class="edge">
<title>9013980375034590071&#45;&gt;&#45;2973941279557365939</title>
<path fill="none" stroke="black" d="M1299.5,-590.39C1269.64,-593.81 1220.25,-599.46 1177.69,-604.27 1034.6,-620.43 995.05,-604.01 855.69,-640.27 794.07,-656.3 728.66,-682.41 674.11,-706.96"/>
<polygon fill="black" stroke="black" points="672.42,-703.88 664.76,-711.2 675.31,-710.26 672.42,-703.88"/>
</g>
<!-- 8904970697874514579&#45;&gt;&#45;3286865800911966198 -->
<g id="edge22" class="edge">
<title>8904970697874514579&#45;&gt;&#45;3286865800911966198</title>
<path fill="none" stroke="black" d="M174.21,-503.85C194.2,-524.33 214.57,-545.19 229.68,-560.67"/>
<polygon fill="black" stroke="black" points="227.58,-563.53 237.07,-568.25 232.59,-558.65 227.58,-563.53"/>
</g>
<!-- &#45;5216290207533484343&#45;&gt;7052680838790467636 -->
<g id="edge24" class="edge">
<title>&#45;5216290207533484343&#45;&gt;7052680838790467636</title>
<path fill="none" stroke="black" d="M370.19,-522.35C376.64,-535.66 382.81,-548.38 387.89,-558.86"/>
<polygon fill="black" stroke="black" points="384.88,-560.69 392.4,-568.16 391.18,-557.64 384.88,-560.69"/>
</g>
<!-- &#45;5334933150231046581&#45;&gt;9013980375034590071 -->
<g id="edge26" class="edge">
<title>&#45;5334933150231046581&#45;&gt;9013980375034590071</title>
<path fill="none" stroke="black" d="M1380.02,-512.91C1367.49,-529.91 1355.2,-546.59 1345.58,-559.64"/>
<polygon fill="black" stroke="black" points="1342.49,-557.93 1339.38,-568.05 1348.13,-562.08 1342.49,-557.93"/>
</g>
<!-- 5207883054873712696&#45;&gt;417384953289426507 -->
<g id="edge28" class="edge">
<title>5207883054873712696&#45;&gt;417384953289426507</title>
<path fill="none" stroke="black" d="M548.69,-532.47C548.69,-541.59 548.69,-550.2 548.69,-557.72"/>
<polygon fill="black" stroke="black" points="545.19,-557.89 548.69,-567.89 552.19,-557.89 545.19,-557.89"/>
</g>
<!-- 8720780353404624134 -->
<g id="node27" class="node">
<title>8720780353404624134</title>
<ellipse fill="none" stroke="black" cx="1368.69" cy="-145.44" rx="73.39" ry="73.39"/>
<text text-anchor="middle" x="1368.69" y="-141.74" font-family="Helvetica,sans-Serif" font-size="14.00">sparse_chunk</text>
</g>
<!-- 8720780353404624134&#45;&gt;&#45;5304239546892009543 -->
<g id="edge30" class="edge">
<title>8720780353404624134&#45;&gt;&#45;5304239546892009543</title>
<path fill="none" stroke="black" d="M1404.9,-209.53C1412.32,-222.46 1419.73,-235.37 1425.87,-246.06"/>
<polygon fill="black" stroke="black" points="1422.89,-247.9 1430.9,-254.83 1428.96,-244.41 1422.89,-247.9"/>
</g>
<!-- 7649138730281134905 -->
<g id="node28" class="node">
<title>7649138730281134905</title>
<polygon fill="none" stroke="black" points="1075.69,-36 1021.69,-36 1021.69,0 1075.69,0 1075.69,-36"/>
</g>
<!-- 7649138730281134905&#45;&gt;8720780353404624134 -->
<g id="edge31" class="edge">
<title>7649138730281134905&#45;&gt;8720780353404624134</title>
<path fill="none" stroke="black" d="M1075.84,-29.33C1082.01,-31.6 1088.56,-33.93 1094.69,-36 1146.65,-53.51 1161.48,-52.41 1212.69,-72 1239.64,-82.31 1268.47,-95.16 1293.93,-107.16"/>
<polygon fill="black" stroke="black" points="1292.61,-110.41 1303.14,-111.54 1295.61,-104.09 1292.61,-110.41"/>
</g>
<!-- 8647906138721808700 -->
<g id="node30" class="node">
<title>8647906138721808700</title>
<ellipse fill="none" stroke="black" cx="1130.69" cy="-145.44" rx="73.39" ry="73.39"/>
<text text-anchor="middle" x="1130.69" y="-141.74" font-family="Helvetica,sans-Serif" font-size="14.00">sparse_chunk</text>
</g>
<!-- 7649138730281134905&#45;&gt;8647906138721808700 -->
<g id="edge34" class="edge">
<title>7649138730281134905&#45;&gt;8647906138721808700</title>
<path fill="none" stroke="black" d="M1059.92,-36.18C1066.7,-46.56 1075.85,-60.54 1085.3,-75.01"/>
<polygon fill="black" stroke="black" points="1082.49,-77.1 1090.89,-83.56 1088.35,-73.27 1082.49,-77.1"/>
</g>
<!-- &#45;8616957448287553284 -->
<g id="node32" class="node">
<title>&#45;8616957448287553284</title>
<ellipse fill="none" stroke="black" cx="965.69" cy="-145.44" rx="73.39" ry="73.39"/>
<text text-anchor="middle" x="965.69" y="-141.74" font-family="Helvetica,sans-Serif" font-size="14.00">sparse_chunk</text>
</g>
<!-- 7649138730281134905&#45;&gt;&#45;8616957448287553284 -->
<g id="edge38" class="edge">
<title>7649138730281134905&#45;&gt;&#45;8616957448287553284</title>
<path fill="none" stroke="black" d="M1037.32,-36.18C1030.42,-46.61 1021.1,-60.69 1011.48,-75.24"/>
<polygon fill="black" stroke="black" points="1008.39,-73.57 1005.79,-83.84 1014.23,-77.43 1008.39,-73.57"/>
</g>
<!-- &#45;2338776930585073175 -->
<g id="node34" class="node">
<title>&#45;2338776930585073175</title>
<ellipse fill="none" stroke="black" cx="786.69" cy="-145.44" rx="73.39" ry="73.39"/>
<text text-anchor="middle" x="786.69" y="-141.74" font-family="Helvetica,sans-Serif" font-size="14.00">sparse_chunk</text>
</g>
<!-- 7649138730281134905&#45;&gt;&#45;2338776930585073175 -->
<g id="edge40" class="edge">
<title>7649138730281134905&#45;&gt;&#45;2338776930585073175</title>
<path fill="none" stroke="black" d="M1021.43,-29.12C1014.98,-31.45 1008.11,-33.86 1001.69,-36 949.67,-53.33 932.61,-47.23 883.69,-72 872.59,-77.62 861.44,-84.51 850.86,-91.79"/>
<polygon fill="black" stroke="black" points="848.65,-89.06 842.5,-97.69 852.69,-94.78 848.65,-89.06"/>
</g>
<!-- &#45;1875747144131216293 -->
<g id="node29" class="node">
<title>&#45;1875747144131216293</title>
<polygon fill="none" stroke="black" points="1395.69,-36 1341.69,-36 1341.69,0 1395.69,0 1395.69,-36"/>
<text text-anchor="middle" x="1368.69" y="-14.3" font-family="Helvetica,sans-Serif" font-size="14.00">(2, 0)</text>
</g>
<!-- &#45;1875747144131216293&#45;&gt;8720780353404624134 -->
<g id="edge32" class="edge">
<title>&#45;1875747144131216293&#45;&gt;8720780353404624134</title>
<path fill="none" stroke="black" d="M1368.69,-36.18C1368.69,-43.3 1368.69,-52.12 1368.69,-61.63"/>
<polygon fill="black" stroke="black" points="1365.19,-61.75 1368.69,-71.75 1372.19,-61.75 1365.19,-61.75"/>
</g>
<!-- 8647906138721808700&#45;&gt;5035307092810424291 -->
<g id="edge33" class="edge">
<title>8647906138721808700&#45;&gt;5035307092810424291</title>
<path fill="none" stroke="black" d="M1130.69,-219.05C1130.69,-228.04 1130.69,-236.75 1130.69,-244.41"/>
<polygon fill="black" stroke="black" points="1127.19,-244.48 1130.69,-254.48 1134.19,-244.48 1127.19,-244.48"/>
</g>
<!-- 85552392112906142 -->
<g id="node31" class="node">
<title>85552392112906142</title>
<polygon fill="none" stroke="black" points="1157.69,-36 1103.69,-36 1103.69,0 1157.69,0 1157.69,-36"/>
<text text-anchor="middle" x="1130.69" y="-14.3" font-family="Helvetica,sans-Serif" font-size="14.00">(3, 0)</text>
</g>
<!-- 85552392112906142&#45;&gt;8647906138721808700 -->
<g id="edge35" class="edge">
<title>85552392112906142&#45;&gt;8647906138721808700</title>
<path fill="none" stroke="black" d="M1130.69,-36.18C1130.69,-43.3 1130.69,-52.12 1130.69,-61.63"/>
<polygon fill="black" stroke="black" points="1127.19,-61.75 1130.69,-71.75 1134.19,-61.75 1127.19,-61.75"/>
</g>
<!-- &#45;8616957448287553284&#45;&gt;&#45;3710001527237172642 -->
<g id="edge36" class="edge">
<title>&#45;8616957448287553284&#45;&gt;&#45;3710001527237172642</title>
<path fill="none" stroke="black" d="M965.69,-219.05C965.69,-228.04 965.69,-236.75 965.69,-244.41"/>
<polygon fill="black" stroke="black" points="962.19,-244.48 965.69,-254.48 969.19,-244.48 962.19,-244.48"/>
</g>
<!-- 5388630462790492697 -->
<g id="node33" class="node">
<title>5388630462790492697</title>
<polygon fill="none" stroke="black" points="992.69,-36 938.69,-36 938.69,0 992.69,0 992.69,-36"/>
<text text-anchor="middle" x="965.69" y="-14.3" font-family="Helvetica,sans-Serif" font-size="14.00">(1, 0)</text>
</g>
<!-- 5388630462790492697&#45;&gt;&#45;8616957448287553284 -->
<g id="edge37" class="edge">
<title>5388630462790492697&#45;&gt;&#45;8616957448287553284</title>
<path fill="none" stroke="black" d="M965.69,-36.18C965.69,-43.3 965.69,-52.12 965.69,-61.63"/>
<polygon fill="black" stroke="black" points="962.19,-61.75 965.69,-71.75 969.19,-61.75 962.19,-61.75"/>
</g>
<!-- &#45;2338776930585073175&#45;&gt;&#45;5671301063481295077 -->
<g id="edge39" class="edge">
<title>&#45;2338776930585073175&#45;&gt;&#45;5671301063481295077</title>
<path fill="none" stroke="black" d="M778.05,-218.69C776.94,-227.97 775.87,-236.97 774.92,-244.85"/>
<polygon fill="black" stroke="black" points="771.44,-244.47 773.73,-254.81 778.4,-245.3 771.44,-244.47"/>
</g>
<!-- 7825688309530738390 -->
<g id="node35" class="node">
<title>7825688309530738390</title>
<polygon fill="none" stroke="black" points="813.69,-36 759.69,-36 759.69,0 813.69,0 813.69,-36"/>
<text text-anchor="middle" x="786.69" y="-14.3" font-family="Helvetica,sans-Serif" font-size="14.00">(0, 0)</text>
</g>
<!-- 7825688309530738390&#45;&gt;&#45;2338776930585073175 -->
<g id="edge41" class="edge">
<title>7825688309530738390&#45;&gt;&#45;2338776930585073175</title>
<path fill="none" stroke="black" d="M786.69,-36.18C786.69,-43.3 786.69,-52.12 786.69,-61.63"/>
<polygon fill="black" stroke="black" points="783.19,-61.75 786.69,-71.75 790.19,-61.75 783.19,-61.75"/>
</g>
</g>
</svg>
