<?xml version="1.0" encoding="UTF-8" standalone="no"?>
<!DOCTYPE svg PUBLIC "-//W3C//DTD SVG 1.1//EN"
 "http://www.w3.org/Graphics/SVG/1.1/DTD/svg11.dtd">
<!-- Generated by graphviz version 2.43.0 (0)
 -->
<!-- Title: %3 Pages: 1 -->
<svg width="1774pt" height="1660pt"
 viewBox="0.00 0.00 1774.38 1659.51" xmlns="http://www.w3.org/2000/svg" xmlns:xlink="http://www.w3.org/1999/xlink">
<g id="graph0" class="graph" transform="scale(1 1) rotate(0) translate(4 1655.51)">
<title>%3</title>
<polygon fill="white" stroke="transparent" points="-4,4 -4,-1655.51 1770.38,-1655.51 1770.38,4 -4,4"/>
<!-- &#45;2732887682587304322 -->
<g id="node1" class="node">
<title>&#45;2732887682587304322</title>
<ellipse fill="none" stroke="black" cx="771.69" cy="-1551.56" rx="27.9" ry="27.9"/>
<text text-anchor="middle" x="771.69" y="-1547.86" font-family="Helvetica,sans-Serif" font-size="14.00">mul</text>
</g>
<!-- 467185589194123107 -->
<g id="node2" class="node">
<title>467185589194123107</title>
<polygon fill="none" stroke="black" points="798.69,-1651.51 744.69,-1651.51 744.69,-1615.51 798.69,-1615.51 798.69,-1651.51"/>
<text text-anchor="middle" x="771.69" y="-1629.81" font-family="Helvetica,sans-Serif" font-size="14.00">0</text>
</g>
<!-- &#45;2732887682587304322&#45;&gt;467185589194123107 -->
<g id="edge1" class="edge">
<title>&#45;2732887682587304322&#45;&gt;467185589194123107</title>
<path fill="none" stroke="black" d="M771.69,-1579.63C771.69,-1587.82 771.69,-1596.82 771.69,-1605.03"/>
<polygon fill="black" stroke="black" points="768.19,-1605.25 771.69,-1615.25 775.19,-1605.25 768.19,-1605.25"/>
</g>
<!-- 1287096536368440890 -->
<g id="node3" class="node">
<title>1287096536368440890</title>
<polygon fill="none" stroke="black" points="762.69,-1487.62 708.69,-1487.62 708.69,-1451.62 762.69,-1451.62 762.69,-1487.62"/>
<text text-anchor="middle" x="735.69" y="-1465.92" font-family="Helvetica,sans-Serif" font-size="14.00">0</text>
</g>
<!-- 1287096536368440890&#45;&gt;&#45;2732887682587304322 -->
<g id="edge2" class="edge">
<title>1287096536368440890&#45;&gt;&#45;2732887682587304322</title>
<path fill="none" stroke="black" d="M743.5,-1487.96C747.26,-1496.32 751.91,-1506.63 756.34,-1516.47"/>
<polygon fill="black" stroke="black" points="753.18,-1517.98 760.48,-1525.66 759.56,-1515.11 753.18,-1517.98"/>
</g>
<!-- &#45;8236974698550613241 -->
<g id="node4" class="node">
<title>&#45;8236974698550613241</title>
<polygon fill="none" stroke="black" points="927.69,-1487.62 873.69,-1487.62 873.69,-1451.62 927.69,-1451.62 927.69,-1487.62"/>
<text text-anchor="middle" x="900.69" y="-1465.92" font-family="Helvetica,sans-Serif" font-size="14.00">0</text>
</g>
<!-- &#45;8236974698550613241&#45;&gt;&#45;2732887682587304322 -->
<g id="edge3" class="edge">
<title>&#45;8236974698550613241&#45;&gt;&#45;2732887682587304322</title>
<path fill="none" stroke="black" d="M873.65,-1487.38C853.35,-1499.96 825.48,-1517.23 804,-1530.54"/>
<polygon fill="black" stroke="black" points="801.89,-1527.73 795.23,-1535.97 805.58,-1533.68 801.89,-1527.73"/>
</g>
<!-- &#45;363552012459255636 -->
<g id="node5" class="node">
<title>&#45;363552012459255636</title>
<ellipse fill="none" stroke="black" cx="994.69" cy="-1285.63" rx="129.98" ry="129.98"/>
<text text-anchor="middle" x="994.69" y="-1281.93" font-family="Helvetica,sans-Serif" font-size="14.00">aggregate_sum&#45;aggregate</text>
</g>
<!-- &#45;363552012459255636&#45;&gt;&#45;8236974698550613241 -->
<g id="edge4" class="edge">
<title>&#45;363552012459255636&#45;&gt;&#45;8236974698550613241</title>
<path fill="none" stroke="black" d="M935.43,-1401.37C927.52,-1416.67 920.11,-1431.01 914.19,-1442.49"/>
<polygon fill="black" stroke="black" points="911.06,-1440.92 909.58,-1451.41 917.28,-1444.13 911.06,-1440.92"/>
</g>
<!-- 6624659954352220162 -->
<g id="node6" class="node">
<title>6624659954352220162</title>
<polygon fill="none" stroke="black" points="1168.69,-1119.64 1114.69,-1119.64 1114.69,-1083.64 1168.69,-1083.64 1168.69,-1119.64"/>
<text text-anchor="middle" x="1141.69" y="-1097.94" font-family="Helvetica,sans-Serif" font-size="14.00">(1, 0)</text>
</g>
<!-- 6624659954352220162&#45;&gt;&#45;363552012459255636 -->
<g id="edge5" class="edge">
<title>6624659954352220162&#45;&gt;&#45;363552012459255636</title>
<path fill="none" stroke="black" d="M1127.86,-1119.76C1116.74,-1133.53 1100.07,-1154.17 1082.26,-1176.22"/>
<polygon fill="black" stroke="black" points="1079.48,-1174.09 1075.92,-1184.07 1084.92,-1178.49 1079.48,-1174.09"/>
</g>
<!-- &#45;8528566768289754445 -->
<g id="node7" class="node">
<title>&#45;8528566768289754445</title>
<polygon fill="none" stroke="black" points="1557.69,-1119.64 1503.69,-1119.64 1503.69,-1083.64 1557.69,-1083.64 1557.69,-1119.64"/>
<text text-anchor="middle" x="1530.69" y="-1097.94" font-family="Helvetica,sans-Serif" font-size="14.00">(2, 0)</text>
</g>
<!-- &#45;8528566768289754445&#45;&gt;&#45;363552012459255636 -->
<g id="edge6" class="edge">
<title>&#45;8528566768289754445&#45;&gt;&#45;363552012459255636</title>
<path fill="none" stroke="black" d="M1503.37,-1111.91C1435.23,-1135.05 1254.12,-1196.54 1127.52,-1239.53"/>
<polygon fill="black" stroke="black" points="1126.08,-1236.32 1117.74,-1242.85 1128.33,-1242.95 1126.08,-1236.32"/>
</g>
<!-- &#45;6567267232045632010 -->
<g id="node8" class="node">
<title>&#45;6567267232045632010</title>
<polygon fill="none" stroke="black" points="1021.69,-1119.64 967.69,-1119.64 967.69,-1083.64 1021.69,-1083.64 1021.69,-1119.64"/>
<text text-anchor="middle" x="994.69" y="-1097.94" font-family="Helvetica,sans-Serif" font-size="14.00">(3, 0)</text>
</g>
<!-- &#45;6567267232045632010&#45;&gt;&#45;363552012459255636 -->
<g id="edge7" class="edge">
<title>&#45;6567267232045632010&#45;&gt;&#45;363552012459255636</title>
<path fill="none" stroke="black" d="M994.69,-1119.76C994.69,-1126.73 994.69,-1135.45 994.69,-1145.23"/>
<polygon fill="black" stroke="black" points="991.19,-1145.33 994.69,-1155.33 998.19,-1145.33 991.19,-1145.33"/>
</g>
<!-- 1172868685372200238 -->
<g id="node9" class="node">
<title>1172868685372200238</title>
<polygon fill="none" stroke="black" points="873.69,-1119.64 819.69,-1119.64 819.69,-1083.64 873.69,-1083.64 873.69,-1119.64"/>
<text text-anchor="middle" x="846.69" y="-1097.94" font-family="Helvetica,sans-Serif" font-size="14.00">(0, 0)</text>
</g>
<!-- 1172868685372200238&#45;&gt;&#45;363552012459255636 -->
<g id="edge8" class="edge">
<title>1172868685372200238&#45;&gt;&#45;363552012459255636</title>
<path fill="none" stroke="black" d="M860.61,-1119.76C871.81,-1133.53 888.6,-1154.17 906.53,-1176.22"/>
<polygon fill="black" stroke="black" points="903.89,-1178.52 912.91,-1184.07 909.32,-1174.1 903.89,-1178.52"/>
</g>
<!-- 1962099487488235160 -->
<g id="node10" class="node">
<title>1962099487488235160</title>
<ellipse fill="none" stroke="black" cx="771.69" cy="-944.95" rx="102.88" ry="102.88"/>
<text text-anchor="middle" x="771.69" y="-941.25" font-family="Helvetica,sans-Serif" font-size="14.00">sum_drop_keepdims</text>
</g>
<!-- 1962099487488235160&#45;&gt;1172868685372200238 -->
<g id="edge9" class="edge">
<title>1962099487488235160&#45;&gt;1172868685372200238</title>
<path fill="none" stroke="black" d="M816.19,-1037.72C822.64,-1051.03 828.81,-1063.75 833.89,-1074.23"/>
<polygon fill="black" stroke="black" points="830.88,-1076.06 838.4,-1083.53 837.18,-1073.01 830.88,-1076.06"/>
</g>
<!-- 976414114022133081 -->
<g id="node11" class="node">
<title>976414114022133081</title>
<polygon fill="none" stroke="black" points="473.69,-806.26 419.69,-806.26 419.69,-770.26 473.69,-770.26 473.69,-806.26"/>
<text text-anchor="middle" x="446.69" y="-784.56" font-family="Helvetica,sans-Serif" font-size="14.00">(0, 0)</text>
</g>
<!-- 976414114022133081&#45;&gt;1962099487488235160 -->
<g id="edge10" class="edge">
<title>976414114022133081&#45;&gt;1962099487488235160</title>
<path fill="none" stroke="black" d="M473.91,-791.65C516.13,-796.3 598.96,-809.16 660.69,-842.26 671.89,-848.26 682.83,-855.65 693.22,-863.68"/>
<polygon fill="black" stroke="black" points="691.05,-866.43 701.05,-869.94 695.42,-860.96 691.05,-866.43"/>
</g>
<!-- 591809594280689356 -->
<g id="node23" class="node">
<title>591809594280689356</title>
<ellipse fill="none" stroke="black" cx="102.69" cy="-944.95" rx="102.88" ry="102.88"/>
<text text-anchor="middle" x="102.69" y="-941.25" font-family="Helvetica,sans-Serif" font-size="14.00">sum_drop_keepdims</text>
</g>
<!-- 976414114022133081&#45;&gt;591809594280689356 -->
<g id="edge23" class="edge">
<title>976414114022133081&#45;&gt;591809594280689356</title>
<path fill="none" stroke="black" d="M419.65,-790.92C374.56,-794.63 282.22,-806.35 213.69,-842.26 202.35,-848.2 191.28,-855.6 180.79,-863.67"/>
<polygon fill="black" stroke="black" points="178.54,-860.99 172.9,-869.96 182.9,-866.47 178.54,-860.99"/>
</g>
<!-- &#45;6390667205646307133 -->
<g id="node12" class="node">
<title>&#45;6390667205646307133</title>
<ellipse fill="none" stroke="black" cx="1217.69" cy="-944.95" rx="102.88" ry="102.88"/>
<text text-anchor="middle" x="1217.69" y="-941.25" font-family="Helvetica,sans-Serif" font-size="14.00">sum_drop_keepdims</text>
</g>
<!-- &#45;6390667205646307133&#45;&gt;6624659954352220162 -->
<g id="edge11" class="edge">
<title>&#45;6390667205646307133&#45;&gt;6624659954352220162</title>
<path fill="none" stroke="black" d="M1172.6,-1037.72C1166,-1051.17 1159.68,-1064.01 1154.51,-1074.55"/>
<polygon fill="black" stroke="black" points="1151.36,-1073.01 1150.1,-1083.53 1157.65,-1076.1 1151.36,-1073.01"/>
</g>
<!-- 2937713650266255516 -->
<g id="node13" class="node">
<title>2937713650266255516</title>
<polygon fill="none" stroke="black" points="1179.69,-806.26 1125.69,-806.26 1125.69,-770.26 1179.69,-770.26 1179.69,-806.26"/>
<text text-anchor="middle" x="1152.69" y="-784.56" font-family="Helvetica,sans-Serif" font-size="14.00">(1, 0)</text>
</g>
<!-- 2937713650266255516&#45;&gt;&#45;6390667205646307133 -->
<g id="edge12" class="edge">
<title>2937713650266255516&#45;&gt;&#45;6390667205646307133</title>
<path fill="none" stroke="black" d="M1159.9,-806.4C1163.71,-815.48 1168.74,-827.45 1174.24,-840.55"/>
<polygon fill="black" stroke="black" points="1171.02,-841.91 1178.12,-849.77 1177.47,-839.2 1171.02,-841.91"/>
</g>
<!-- &#45;5686370923421790753 -->
<g id="node24" class="node">
<title>&#45;5686370923421790753</title>
<ellipse fill="none" stroke="black" cx="548.69" cy="-944.95" rx="102.88" ry="102.88"/>
<text text-anchor="middle" x="548.69" y="-941.25" font-family="Helvetica,sans-Serif" font-size="14.00">sum_drop_keepdims</text>
</g>
<!-- 2937713650266255516&#45;&gt;&#45;5686370923421790753 -->
<g id="edge25" class="edge">
<title>2937713650266255516&#45;&gt;&#45;5686370923421790753</title>
<path fill="none" stroke="black" d="M1125.61,-789.96C1035.11,-792.64 744.12,-804.11 659.69,-842.26 647.92,-847.57 636.56,-854.63 625.89,-862.55"/>
<polygon fill="black" stroke="black" points="623.64,-859.87 617.87,-868.76 627.92,-865.4 623.64,-859.87"/>
</g>
<!-- &#45;7108630114932220089 -->
<g id="node14" class="node">
<title>&#45;7108630114932220089</title>
<ellipse fill="none" stroke="black" cx="1663.69" cy="-944.95" rx="102.88" ry="102.88"/>
<text text-anchor="middle" x="1663.69" y="-941.25" font-family="Helvetica,sans-Serif" font-size="14.00">sum_drop_keepdims</text>
</g>
<!-- &#45;7108630114932220089&#45;&gt;&#45;8528566768289754445 -->
<g id="edge13" class="edge">
<title>&#45;7108630114932220089&#45;&gt;&#45;8528566768289754445</title>
<path fill="none" stroke="black" d="M1597.19,-1023.29C1580.9,-1042.24 1564.62,-1061.18 1552.24,-1075.58"/>
<polygon fill="black" stroke="black" points="1549.3,-1073.63 1545.43,-1083.49 1554.61,-1078.19 1549.3,-1073.63"/>
</g>
<!-- 8389504919246275440 -->
<g id="node15" class="node">
<title>8389504919246275440</title>
<polygon fill="none" stroke="black" points="1532.69,-806.26 1478.69,-806.26 1478.69,-770.26 1532.69,-770.26 1532.69,-806.26"/>
<text text-anchor="middle" x="1505.69" y="-784.56" font-family="Helvetica,sans-Serif" font-size="14.00">(2, 0)</text>
</g>
<!-- 8389504919246275440&#45;&gt;&#45;7108630114932220089 -->
<g id="edge14" class="edge">
<title>8389504919246275440&#45;&gt;&#45;7108630114932220089</title>
<path fill="none" stroke="black" d="M1523.2,-806.4C1538.07,-820.95 1560.53,-842.94 1583.16,-865.1"/>
<polygon fill="black" stroke="black" points="1580.91,-867.79 1590.5,-872.29 1585.8,-862.79 1580.91,-867.79"/>
</g>
<!-- &#45;5759245138104606187 -->
<g id="node25" class="node">
<title>&#45;5759245138104606187</title>
<ellipse fill="none" stroke="black" cx="1440.69" cy="-944.95" rx="102.88" ry="102.88"/>
<text text-anchor="middle" x="1440.69" y="-941.25" font-family="Helvetica,sans-Serif" font-size="14.00">sum_drop_keepdims</text>
</g>
<!-- 8389504919246275440&#45;&gt;&#45;5759245138104606187 -->
<g id="edge27" class="edge">
<title>8389504919246275440&#45;&gt;&#45;5759245138104606187</title>
<path fill="none" stroke="black" d="M1498.49,-806.4C1494.67,-815.48 1489.64,-827.45 1484.14,-840.55"/>
<polygon fill="black" stroke="black" points="1480.91,-839.2 1480.26,-849.77 1487.36,-841.91 1480.91,-839.2"/>
</g>
<!-- 5059933441074851418 -->
<g id="node16" class="node">
<title>5059933441074851418</title>
<ellipse fill="none" stroke="black" cx="994.69" cy="-944.95" rx="102.88" ry="102.88"/>
<text text-anchor="middle" x="994.69" y="-941.25" font-family="Helvetica,sans-Serif" font-size="14.00">sum_drop_keepdims</text>
</g>
<!-- 5059933441074851418&#45;&gt;&#45;6567267232045632010 -->
<g id="edge15" class="edge">
<title>5059933441074851418&#45;&gt;&#45;6567267232045632010</title>
<path fill="none" stroke="black" d="M994.69,-1047.84C994.69,-1056.96 994.69,-1065.57 994.69,-1073.09"/>
<polygon fill="black" stroke="black" points="991.19,-1073.26 994.69,-1083.26 998.19,-1073.26 991.19,-1073.26"/>
</g>
<!-- &#45;8095939618219153741 -->
<g id="node17" class="node">
<title>&#45;8095939618219153741</title>
<polygon fill="none" stroke="black" points="826.69,-806.26 772.69,-806.26 772.69,-770.26 826.69,-770.26 826.69,-806.26"/>
<text text-anchor="middle" x="799.69" y="-784.56" font-family="Helvetica,sans-Serif" font-size="14.00">(3, 0)</text>
</g>
<!-- &#45;8095939618219153741&#45;&gt;5059933441074851418 -->
<g id="edge16" class="edge">
<title>&#45;8095939618219153741&#45;&gt;5059933441074851418</title>
<path fill="none" stroke="black" d="M826.99,-804.79C843.83,-814.78 865.6,-828.44 883.69,-842.26 893.52,-849.77 903.52,-857.98 913.27,-866.37"/>
<polygon fill="black" stroke="black" points="911.2,-869.21 921.04,-873.14 915.8,-863.93 911.2,-869.21"/>
</g>
<!-- 4138482372397055568 -->
<g id="node26" class="node">
<title>4138482372397055568</title>
<ellipse fill="none" stroke="black" cx="325.69" cy="-944.95" rx="102.88" ry="102.88"/>
<text text-anchor="middle" x="325.69" y="-941.25" font-family="Helvetica,sans-Serif" font-size="14.00">sum_drop_keepdims</text>
</g>
<!-- &#45;8095939618219153741&#45;&gt;4138482372397055568 -->
<g id="edge29" class="edge">
<title>&#45;8095939618219153741&#45;&gt;4138482372397055568</title>
<path fill="none" stroke="black" d="M772.5,-791.15C698.77,-796.61 496.52,-813.85 436.69,-842.26 425.03,-847.8 413.73,-854.98 403.09,-862.98"/>
<polygon fill="black" stroke="black" points="400.81,-860.32 395.09,-869.24 405.13,-865.83 400.81,-860.32"/>
</g>
<!-- &#45;2149946155960521838 -->
<g id="node18" class="node">
<title>&#45;2149946155960521838</title>
<ellipse fill="none" stroke="black" cx="548.69" cy="-1285.63" rx="129.98" ry="129.98"/>
<text text-anchor="middle" x="548.69" y="-1281.93" font-family="Helvetica,sans-Serif" font-size="14.00">aggregate_sum&#45;aggregate</text>
</g>
<!-- &#45;2149946155960521838&#45;&gt;1287096536368440890 -->
<g id="edge17" class="edge">
<title>&#45;2149946155960521838&#45;&gt;1287096536368440890</title>
<path fill="none" stroke="black" d="M641.37,-1376.82C666.92,-1401.69 692.56,-1426.64 710.64,-1444.24"/>
<polygon fill="black" stroke="black" points="708.3,-1446.84 717.91,-1451.31 713.18,-1441.83 708.3,-1446.84"/>
</g>
<!-- 4383500372602759642 -->
<g id="node19" class="node">
<title>4383500372602759642</title>
<polygon fill="none" stroke="black" points="427.69,-1119.64 373.69,-1119.64 373.69,-1083.64 427.69,-1083.64 427.69,-1119.64"/>
<text text-anchor="middle" x="400.69" y="-1097.94" font-family="Helvetica,sans-Serif" font-size="14.00">(3, 0)</text>
</g>
<!-- 4383500372602759642&#45;&gt;&#45;2149946155960521838 -->
<g id="edge18" class="edge">
<title>4383500372602759642&#45;&gt;&#45;2149946155960521838</title>
<path fill="none" stroke="black" d="M414.61,-1119.76C425.81,-1133.53 442.6,-1154.17 460.53,-1176.22"/>
<polygon fill="black" stroke="black" points="457.89,-1178.52 466.91,-1184.07 463.32,-1174.1 457.89,-1178.52"/>
</g>
<!-- 7725278907036223762 -->
<g id="node20" class="node">
<title>7725278907036223762</title>
<polygon fill="none" stroke="black" points="280.69,-1119.64 226.69,-1119.64 226.69,-1083.64 280.69,-1083.64 280.69,-1119.64"/>
<text text-anchor="middle" x="253.69" y="-1097.94" font-family="Helvetica,sans-Serif" font-size="14.00">(0, 0)</text>
</g>
<!-- 7725278907036223762&#45;&gt;&#45;2149946155960521838 -->
<g id="edge19" class="edge">
<title>7725278907036223762&#45;&gt;&#45;2149946155960521838</title>
<path fill="none" stroke="black" d="M280.92,-1119.43C314.83,-1140.36 375,-1177.47 429.72,-1211.23"/>
<polygon fill="black" stroke="black" points="428.1,-1214.35 438.45,-1216.62 431.78,-1208.39 428.1,-1214.35"/>
</g>
<!-- &#45;8760165630429205419 -->
<g id="node21" class="node">
<title>&#45;8760165630429205419</title>
<polygon fill="none" stroke="black" points="575.69,-1119.64 521.69,-1119.64 521.69,-1083.64 575.69,-1083.64 575.69,-1119.64"/>
<text text-anchor="middle" x="548.69" y="-1097.94" font-family="Helvetica,sans-Serif" font-size="14.00">(1, 0)</text>
</g>
<!-- &#45;8760165630429205419&#45;&gt;&#45;2149946155960521838 -->
<g id="edge20" class="edge">
<title>&#45;8760165630429205419&#45;&gt;&#45;2149946155960521838</title>
<path fill="none" stroke="black" d="M548.69,-1119.76C548.69,-1126.73 548.69,-1135.45 548.69,-1145.23"/>
<polygon fill="black" stroke="black" points="545.19,-1145.33 548.69,-1155.33 552.19,-1145.33 545.19,-1145.33"/>
</g>
<!-- 1579381009273228415 -->
<g id="node22" class="node">
<title>1579381009273228415</title>
<polygon fill="none" stroke="black" points="1353.69,-1119.64 1299.69,-1119.64 1299.69,-1083.64 1353.69,-1083.64 1353.69,-1119.64"/>
<text text-anchor="middle" x="1326.69" y="-1097.94" font-family="Helvetica,sans-Serif" font-size="14.00">(2, 0)</text>
</g>
<!-- 1579381009273228415&#45;&gt;&#45;2149946155960521838 -->
<g id="edge21" class="edge">
<title>1579381009273228415&#45;&gt;&#45;2149946155960521838</title>
<path fill="none" stroke="black" d="M1299.5,-1105.76C1269.64,-1109.18 1220.25,-1114.83 1177.69,-1119.64 1034.6,-1135.8 995.05,-1119.38 855.69,-1155.64 794.07,-1171.67 728.66,-1197.78 674.11,-1222.33"/>
<polygon fill="black" stroke="black" points="672.42,-1219.25 664.76,-1226.57 675.31,-1225.63 672.42,-1219.25"/>
</g>
<!-- 591809594280689356&#45;&gt;7725278907036223762 -->
<g id="edge22" class="edge">
<title>591809594280689356&#45;&gt;7725278907036223762</title>
<path fill="none" stroke="black" d="M174.21,-1019.22C194.2,-1039.7 214.57,-1060.56 229.68,-1076.04"/>
<polygon fill="black" stroke="black" points="227.58,-1078.91 237.07,-1083.62 232.59,-1074.02 227.58,-1078.91"/>
</g>
<!-- &#45;5686370923421790753&#45;&gt;&#45;8760165630429205419 -->
<g id="edge24" class="edge">
<title>&#45;5686370923421790753&#45;&gt;&#45;8760165630429205419</title>
<path fill="none" stroke="black" d="M548.69,-1047.84C548.69,-1056.96 548.69,-1065.57 548.69,-1073.09"/>
<polygon fill="black" stroke="black" points="545.19,-1073.26 548.69,-1083.26 552.19,-1073.26 545.19,-1073.26"/>
</g>
<!-- &#45;5759245138104606187&#45;&gt;1579381009273228415 -->
<g id="edge26" class="edge">
<title>&#45;5759245138104606187&#45;&gt;1579381009273228415</title>
<path fill="none" stroke="black" d="M1380.02,-1028.28C1367.49,-1045.28 1355.2,-1061.96 1345.58,-1075.01"/>
<polygon fill="black" stroke="black" points="1342.49,-1073.3 1339.38,-1083.42 1348.13,-1077.45 1342.49,-1073.3"/>
</g>
<!-- 4138482372397055568&#45;&gt;4383500372602759642 -->
<g id="edge28" class="edge">
<title>4138482372397055568&#45;&gt;4383500372602759642</title>
<path fill="none" stroke="black" d="M370.19,-1037.72C376.64,-1051.03 382.81,-1063.75 387.89,-1074.23"/>
<polygon fill="black" stroke="black" points="384.88,-1076.06 392.4,-1083.53 391.18,-1073.01 384.88,-1076.06"/>
</g>
<!-- 3873258065761236508 -->
<g id="node27" class="node">
<title>3873258065761236508</title>
<polygon fill="none" stroke="black" points="473.69,-734.26 419.69,-734.26 419.69,-698.26 473.69,-698.26 473.69,-734.26"/>
<text text-anchor="middle" x="446.69" y="-712.56" font-family="Helvetica,sans-Serif" font-size="14.00">(0, 0)</text>
</g>
<!-- 3873258065761236508&#45;&gt;976414114022133081 -->
<g id="edge30" class="edge">
<title>3873258065761236508&#45;&gt;976414114022133081</title>
<path fill="none" stroke="black" d="M446.69,-734.56C446.69,-742.27 446.69,-751.54 446.69,-760.14"/>
<polygon fill="black" stroke="black" points="443.19,-760.15 446.69,-770.15 450.19,-760.15 443.19,-760.15"/>
</g>
<!-- 7166775416828813517 -->
<g id="node28" class="node">
<title>7166775416828813517</title>
<polygon fill="none" stroke="black" points="1179.69,-734.26 1125.69,-734.26 1125.69,-698.26 1179.69,-698.26 1179.69,-734.26"/>
<text text-anchor="middle" x="1152.69" y="-712.56" font-family="Helvetica,sans-Serif" font-size="14.00">(1, 0)</text>
</g>
<!-- 7166775416828813517&#45;&gt;2937713650266255516 -->
<g id="edge31" class="edge">
<title>7166775416828813517&#45;&gt;2937713650266255516</title>
<path fill="none" stroke="black" d="M1152.69,-734.56C1152.69,-742.27 1152.69,-751.54 1152.69,-760.14"/>
<polygon fill="black" stroke="black" points="1149.19,-760.15 1152.69,-770.15 1156.19,-760.15 1149.19,-760.15"/>
</g>
<!-- &#45;6670997214986126967 -->
<g id="node29" class="node">
<title>&#45;6670997214986126967</title>
<polygon fill="none" stroke="black" points="1532.69,-734.26 1478.69,-734.26 1478.69,-698.26 1532.69,-698.26 1532.69,-734.26"/>
<text text-anchor="middle" x="1505.69" y="-712.56" font-family="Helvetica,sans-Serif" font-size="14.00">(2, 0)</text>
</g>
<!-- &#45;6670997214986126967&#45;&gt;8389504919246275440 -->
<g id="edge32" class="edge">
<title>&#45;6670997214986126967&#45;&gt;8389504919246275440</title>
<path fill="none" stroke="black" d="M1505.69,-734.56C1505.69,-742.27 1505.69,-751.54 1505.69,-760.14"/>
<polygon fill="black" stroke="black" points="1502.19,-760.15 1505.69,-770.15 1509.19,-760.15 1502.19,-760.15"/>
</g>
<!-- &#45;3866877851656595740 -->
<g id="node30" class="node">
<title>&#45;3866877851656595740</title>
<polygon fill="none" stroke="black" points="826.69,-734.26 772.69,-734.26 772.69,-698.26 826.69,-698.26 826.69,-734.26"/>
<text text-anchor="middle" x="799.69" y="-712.56" font-family="Helvetica,sans-Serif" font-size="14.00">(3, 0)</text>
</g>
<!-- &#45;3866877851656595740&#45;&gt;&#45;8095939618219153741 -->
<g id="edge33" class="edge">
<title>&#45;3866877851656595740&#45;&gt;&#45;8095939618219153741</title>
<path fill="none" stroke="black" d="M799.69,-734.56C799.69,-742.27 799.69,-751.54 799.69,-760.14"/>
<polygon fill="black" stroke="black" points="796.19,-760.15 799.69,-770.15 803.19,-760.15 796.19,-760.15"/>
</g>
<!-- &#45;3295140984868053511 -->
<g id="node31" class="node">
<title>&#45;3295140984868053511</title>
<ellipse fill="none" stroke="black" cx="1399.69" cy="-145.44" rx="73.39" ry="73.39"/>
<text text-anchor="middle" x="1399.69" y="-141.74" font-family="Helvetica,sans-Serif" font-size="14.00">sparse_chunk</text>
</g>
<!-- &#45;6297630576294115288 -->
<g id="node32" class="node">
<title>&#45;6297630576294115288</title>
<polygon fill="none" stroke="black" points="1485.69,-290.89 1431.69,-290.89 1431.69,-254.89 1485.69,-254.89 1485.69,-290.89"/>
<text text-anchor="middle" x="1458.69" y="-269.19" font-family="Helvetica,sans-Serif" font-size="14.00">(2, 0)</text>
</g>
<!-- &#45;3295140984868053511&#45;&gt;&#45;6297630576294115288 -->
<g id="edge34" class="edge">
<title>&#45;3295140984868053511&#45;&gt;&#45;6297630576294115288</title>
<path fill="none" stroke="black" d="M1430.57,-212.1C1436.14,-223.93 1441.63,-235.62 1446.27,-245.48"/>
<polygon fill="black" stroke="black" points="1443.17,-247.11 1450.59,-254.67 1449.5,-244.13 1443.17,-247.11"/>
</g>
<!-- &#45;6683868402568671961 -->
<g id="node45" class="node">
<title>&#45;6683868402568671961</title>
<ellipse fill="none" stroke="black" cx="1505.69" cy="-494.57" rx="167.87" ry="167.87"/>
<text text-anchor="middle" x="1505.69" y="-490.87" font-family="Helvetica,sans-Serif" font-size="14.00">aggregate_sum&#45;aggregate&#45;getitem</text>
</g>
<!-- &#45;6297630576294115288&#45;&gt;&#45;6683868402568671961 -->
<g id="edge49" class="edge">
<title>&#45;6297630576294115288&#45;&gt;&#45;6683868402568671961</title>
<path fill="none" stroke="black" d="M1462.38,-291.13C1464.05,-298.95 1466.21,-309.03 1468.66,-320.5"/>
<polygon fill="black" stroke="black" points="1465.28,-321.41 1470.79,-330.45 1472.12,-319.94 1465.28,-321.41"/>
</g>
<!-- &#45;2308243192806481002 -->
<g id="node33" class="node">
<title>&#45;2308243192806481002</title>
<polygon fill="none" stroke="black" points="1426.69,-36 1372.69,-36 1372.69,0 1426.69,0 1426.69,-36"/>
<text text-anchor="middle" x="1399.69" y="-14.3" font-family="Helvetica,sans-Serif" font-size="14.00">(2, 0)</text>
</g>
<!-- &#45;2308243192806481002&#45;&gt;&#45;3295140984868053511 -->
<g id="edge35" class="edge">
<title>&#45;2308243192806481002&#45;&gt;&#45;3295140984868053511</title>
<path fill="none" stroke="black" d="M1399.69,-36.18C1399.69,-43.3 1399.69,-52.12 1399.69,-61.63"/>
<polygon fill="black" stroke="black" points="1396.19,-61.75 1399.69,-71.75 1403.19,-61.75 1396.19,-61.75"/>
</g>
<!-- 305601037397474535 -->
<g id="node34" class="node">
<title>305601037397474535</title>
<polygon fill="none" stroke="black" points="1062.69,-36 1008.69,-36 1008.69,0 1062.69,0 1062.69,-36"/>
</g>
<!-- 305601037397474535&#45;&gt;&#45;3295140984868053511 -->
<g id="edge36" class="edge">
<title>305601037397474535&#45;&gt;&#45;3295140984868053511</title>
<path fill="none" stroke="black" d="M1062.84,-29.33C1069.01,-31.6 1075.56,-33.93 1081.69,-36 1133.65,-53.51 1147.67,-54.66 1199.69,-72 1240.05,-85.46 1284.59,-101.47 1321.37,-115.02"/>
<polygon fill="black" stroke="black" points="1320.44,-118.41 1331.04,-118.59 1322.87,-111.84 1320.44,-118.41"/>
</g>
<!-- &#45;343389794244220305 -->
<g id="node35" class="node">
<title>&#45;343389794244220305</title>
<ellipse fill="none" stroke="black" cx="646.69" cy="-145.44" rx="73.39" ry="73.39"/>
<text text-anchor="middle" x="646.69" y="-141.74" font-family="Helvetica,sans-Serif" font-size="14.00">sparse_chunk</text>
</g>
<!-- 305601037397474535&#45;&gt;&#45;343389794244220305 -->
<g id="edge39" class="edge">
<title>305601037397474535&#45;&gt;&#45;343389794244220305</title>
<path fill="none" stroke="black" d="M1008.57,-24.47C967.9,-32.97 888.94,-50.61 823.69,-72 790.09,-83.01 753.82,-97.4 722.91,-110.44"/>
<polygon fill="black" stroke="black" points="721.34,-107.31 713.5,-114.44 724.07,-113.75 721.34,-107.31"/>
</g>
<!-- &#45;4291585129292460872 -->
<g id="node38" class="node">
<title>&#45;4291585129292460872</title>
<ellipse fill="none" stroke="black" cx="905.69" cy="-145.44" rx="73.39" ry="73.39"/>
<text text-anchor="middle" x="905.69" y="-141.74" font-family="Helvetica,sans-Serif" font-size="14.00">sparse_chunk</text>
</g>
<!-- 305601037397474535&#45;&gt;&#45;4291585129292460872 -->
<g id="edge42" class="edge">
<title>305601037397474535&#45;&gt;&#45;4291585129292460872</title>
<path fill="none" stroke="black" d="M1017.89,-36.18C1004.2,-49.39 984.45,-68.44 965.33,-86.9"/>
<polygon fill="black" stroke="black" points="962.81,-84.47 958.04,-93.93 967.67,-89.5 962.81,-84.47"/>
</g>
<!-- &#45;5949108074252547171 -->
<g id="node41" class="node">
<title>&#45;5949108074252547171</title>
<ellipse fill="none" stroke="black" cx="1117.69" cy="-145.44" rx="73.39" ry="73.39"/>
<text text-anchor="middle" x="1117.69" y="-141.74" font-family="Helvetica,sans-Serif" font-size="14.00">sparse_chunk</text>
</g>
<!-- 305601037397474535&#45;&gt;&#45;5949108074252547171 -->
<g id="edge45" class="edge">
<title>305601037397474535&#45;&gt;&#45;5949108074252547171</title>
<path fill="none" stroke="black" d="M1046.92,-36.18C1053.7,-46.56 1062.85,-60.54 1072.3,-75.01"/>
<polygon fill="black" stroke="black" points="1069.49,-77.1 1077.89,-83.56 1075.35,-73.27 1069.49,-77.1"/>
</g>
<!-- &#45;994552505616528733 -->
<g id="node36" class="node">
<title>&#45;994552505616528733</title>
<polygon fill="none" stroke="black" points="567.69,-290.89 513.69,-290.89 513.69,-254.89 567.69,-254.89 567.69,-290.89"/>
<text text-anchor="middle" x="540.69" y="-269.19" font-family="Helvetica,sans-Serif" font-size="14.00">(0, 0)</text>
</g>
<!-- &#45;343389794244220305&#45;&gt;&#45;994552505616528733 -->
<g id="edge37" class="edge">
<title>&#45;343389794244220305&#45;&gt;&#45;994552505616528733</title>
<path fill="none" stroke="black" d="M599.58,-202.2C586.43,-217.76 572.78,-233.91 561.94,-246.73"/>
<polygon fill="black" stroke="black" points="559.04,-244.75 555.26,-254.65 564.39,-249.27 559.04,-244.75"/>
</g>
<!-- &#45;4282332228637994592 -->
<g id="node47" class="node">
<title>&#45;4282332228637994592</title>
<ellipse fill="none" stroke="black" cx="446.69" cy="-494.57" rx="167.87" ry="167.87"/>
<text text-anchor="middle" x="446.69" y="-490.87" font-family="Helvetica,sans-Serif" font-size="14.00">aggregate_sum&#45;aggregate&#45;getitem</text>
</g>
<!-- &#45;994552505616528733&#45;&gt;&#45;4282332228637994592 -->
<g id="edge53" class="edge">
<title>&#45;994552505616528733&#45;&gt;&#45;4282332228637994592</title>
<path fill="none" stroke="black" d="M533.31,-291.13C529.01,-301.19 523.11,-314.98 516.39,-330.68"/>
<polygon fill="black" stroke="black" points="513.06,-329.55 512.35,-340.13 519.5,-332.31 513.06,-329.55"/>
</g>
<!-- 2994834877871105553 -->
<g id="node37" class="node">
<title>2994834877871105553</title>
<polygon fill="none" stroke="black" points="673.69,-36 619.69,-36 619.69,0 673.69,0 673.69,-36"/>
<text text-anchor="middle" x="646.69" y="-14.3" font-family="Helvetica,sans-Serif" font-size="14.00">(0, 0)</text>
</g>
<!-- 2994834877871105553&#45;&gt;&#45;343389794244220305 -->
<g id="edge38" class="edge">
<title>2994834877871105553&#45;&gt;&#45;343389794244220305</title>
<path fill="none" stroke="black" d="M646.69,-36.18C646.69,-43.3 646.69,-52.12 646.69,-61.63"/>
<polygon fill="black" stroke="black" points="643.19,-61.75 646.69,-71.75 650.19,-61.75 643.19,-61.75"/>
</g>
<!-- &#45;8734688423034360981 -->
<g id="node39" class="node">
<title>&#45;8734688423034360981</title>
<polygon fill="none" stroke="black" points="838.69,-290.89 784.69,-290.89 784.69,-254.89 838.69,-254.89 838.69,-290.89"/>
<text text-anchor="middle" x="811.69" y="-269.19" font-family="Helvetica,sans-Serif" font-size="14.00">(3, 0)</text>
</g>
<!-- &#45;4291585129292460872&#45;&gt;&#45;8734688423034360981 -->
<g id="edge40" class="edge">
<title>&#45;4291585129292460872&#45;&gt;&#45;8734688423034360981</title>
<path fill="none" stroke="black" d="M861.99,-204.76C851.04,-219.38 839.84,-234.32 830.8,-246.39"/>
<polygon fill="black" stroke="black" points="827.83,-244.52 824.63,-254.62 833.43,-248.71 827.83,-244.52"/>
</g>
<!-- &#45;8230527563686235159 -->
<g id="node46" class="node">
<title>&#45;8230527563686235159</title>
<ellipse fill="none" stroke="black" cx="799.69" cy="-494.57" rx="167.87" ry="167.87"/>
<text text-anchor="middle" x="799.69" y="-490.87" font-family="Helvetica,sans-Serif" font-size="14.00">aggregate_sum&#45;aggregate&#45;getitem</text>
</g>
<!-- &#45;8734688423034360981&#45;&gt;&#45;8230527563686235159 -->
<g id="edge51" class="edge">
<title>&#45;8734688423034360981&#45;&gt;&#45;8230527563686235159</title>
<path fill="none" stroke="black" d="M810.75,-291.13C810.37,-298.03 809.9,-306.69 809.36,-316.52"/>
<polygon fill="black" stroke="black" points="805.86,-316.53 808.81,-326.71 812.85,-316.91 805.86,-316.53"/>
</g>
<!-- 2300728249088130130 -->
<g id="node40" class="node">
<title>2300728249088130130</title>
<polygon fill="none" stroke="black" points="932.69,-36 878.69,-36 878.69,0 932.69,0 932.69,-36"/>
<text text-anchor="middle" x="905.69" y="-14.3" font-family="Helvetica,sans-Serif" font-size="14.00">(3, 0)</text>
</g>
<!-- 2300728249088130130&#45;&gt;&#45;4291585129292460872 -->
<g id="edge41" class="edge">
<title>2300728249088130130&#45;&gt;&#45;4291585129292460872</title>
<path fill="none" stroke="black" d="M905.69,-36.18C905.69,-43.3 905.69,-52.12 905.69,-61.63"/>
<polygon fill="black" stroke="black" points="902.19,-61.75 905.69,-71.75 909.19,-61.75 902.19,-61.75"/>
</g>
<!-- 2298964845451048276 -->
<g id="node42" class="node">
<title>2298964845451048276</title>
<polygon fill="none" stroke="black" points="1167.69,-290.89 1113.69,-290.89 1113.69,-254.89 1167.69,-254.89 1167.69,-290.89"/>
<text text-anchor="middle" x="1140.69" y="-269.19" font-family="Helvetica,sans-Serif" font-size="14.00">(1, 0)</text>
</g>
<!-- &#45;5949108074252547171&#45;&gt;2298964845451048276 -->
<g id="edge43" class="edge">
<title>&#45;5949108074252547171&#45;&gt;2298964845451048276</title>
<path fill="none" stroke="black" d="M1130.8,-217.96C1132.52,-227.34 1134.19,-236.45 1135.66,-244.44"/>
<polygon fill="black" stroke="black" points="1132.26,-245.34 1137.51,-254.54 1139.15,-244.08 1132.26,-245.34"/>
</g>
<!-- 669844449342964541 -->
<g id="node44" class="node">
<title>669844449342964541</title>
<ellipse fill="none" stroke="black" cx="1152.69" cy="-494.57" rx="167.87" ry="167.87"/>
<text text-anchor="middle" x="1152.69" y="-490.87" font-family="Helvetica,sans-Serif" font-size="14.00">aggregate_sum&#45;aggregate&#45;getitem</text>
</g>
<!-- 2298964845451048276&#45;&gt;669844449342964541 -->
<g id="edge47" class="edge">
<title>2298964845451048276&#45;&gt;669844449342964541</title>
<path fill="none" stroke="black" d="M1141.63,-291.13C1142.01,-298.03 1142.48,-306.69 1143.02,-316.52"/>
<polygon fill="black" stroke="black" points="1139.54,-316.91 1143.58,-326.71 1146.53,-316.53 1139.54,-316.91"/>
</g>
<!-- &#45;5112362556136012229 -->
<g id="node43" class="node">
<title>&#45;5112362556136012229</title>
<polygon fill="none" stroke="black" points="1144.69,-36 1090.69,-36 1090.69,0 1144.69,0 1144.69,-36"/>
<text text-anchor="middle" x="1117.69" y="-14.3" font-family="Helvetica,sans-Serif" font-size="14.00">(1, 0)</text>
</g>
<!-- &#45;5112362556136012229&#45;&gt;&#45;5949108074252547171 -->
<g id="edge44" class="edge">
<title>&#45;5112362556136012229&#45;&gt;&#45;5949108074252547171</title>
<path fill="none" stroke="black" d="M1117.69,-36.18C1117.69,-43.3 1117.69,-52.12 1117.69,-61.63"/>
<polygon fill="black" stroke="black" points="1114.19,-61.75 1117.69,-71.75 1121.19,-61.75 1114.19,-61.75"/>
</g>
<!-- 669844449342964541&#45;&gt;7166775416828813517 -->
<g id="edge46" class="edge">
<title>669844449342964541&#45;&gt;7166775416828813517</title>
<path fill="none" stroke="black" d="M1152.69,-662.36C1152.69,-671.8 1152.69,-680.47 1152.69,-687.94"/>
<polygon fill="black" stroke="black" points="1149.19,-687.97 1152.69,-697.97 1156.19,-687.97 1149.19,-687.97"/>
</g>
<!-- &#45;6683868402568671961&#45;&gt;&#45;6670997214986126967 -->
<g id="edge48" class="edge">
<title>&#45;6683868402568671961&#45;&gt;&#45;6670997214986126967</title>
<path fill="none" stroke="black" d="M1505.69,-662.36C1505.69,-671.8 1505.69,-680.47 1505.69,-687.94"/>
<polygon fill="black" stroke="black" points="1502.19,-687.97 1505.69,-697.97 1509.19,-687.97 1502.19,-687.97"/>
</g>
<!-- &#45;8230527563686235159&#45;&gt;&#45;3866877851656595740 -->
<g id="edge50" class="edge">
<title>&#45;8230527563686235159&#45;&gt;&#45;3866877851656595740</title>
<path fill="none" stroke="black" d="M799.69,-662.36C799.69,-671.8 799.69,-680.47 799.69,-687.94"/>
<polygon fill="black" stroke="black" points="796.19,-687.97 799.69,-697.97 803.19,-687.97 796.19,-687.97"/>
</g>
<!-- &#45;4282332228637994592&#45;&gt;3873258065761236508 -->
<g id="edge52" class="edge">
<title>&#45;4282332228637994592&#45;&gt;3873258065761236508</title>
<path fill="none" stroke="black" d="M446.69,-662.36C446.69,-671.8 446.69,-680.47 446.69,-687.94"/>
<polygon fill="black" stroke="black" points="443.19,-687.97 446.69,-697.97 450.19,-687.97 443.19,-687.97"/>
</g>
</g>
</svg>
